<svg xmlns="http://www.w3.org/2000/svg" xmlns:xlink="http://www.w3.org/1999/xlink" width="1366" zoomAndPan="magnify" viewBox="0 0 1024.5 226.5" height="302" preserveAspectRatio="xMidYMid meet" version="1.0"><defs><g/><clipPath id="3d5dac0982"><path d="M 0.878906 0 L 1023.121094 0 L 1023.121094 226 L 0.878906 226 Z M 0.878906 0 " clip-rule="nonzero"/></clipPath><clipPath id="b93e16f2ef"><path d="M 121 162 L 542 162 L 542 211.636719 L 121 211.636719 Z M 121 162 " clip-rule="nonzero"/></clipPath><clipPath id="03e330721f"><rect x="0" width="857" y="0" height="111"/></clipPath><clipPath id="18e4081e68"><path d="M 565 135.660156 L 951 135.660156 L 951 181 L 565 181 Z M 565 135.660156 " clip-rule="nonzero"/></clipPath></defs><g clip-path="url(#3d5dac0982)"><path fill="#b9ba65" d="M 0.878906 0 L 1023.121094 0 L 1023.121094 226 L 0.878906 226 Z M 0.878906 0 " fill-opacity="1" fill-rule="nonzero"/></g><g clip-path="url(#b93e16f2ef)"><path fill="#ffbd59" d="M 254.527344 210.566406 C 257.535156 211.195312 260.832031 211.570312 263.886719 211.589844 C 268.324219 211.039062 272.832031 209.667969 277.070312 208.40625 C 285.847656 205.546875 294.820312 202.667969 301.316406 195.835938 C 301.316406 195.835938 304.335938 193.949219 304.335938 193.949219 L 307.253906 192.046875 L 309.765625 189.75 C 311.175781 188.25 315.28125 184.917969 316.90625 183.578125 C 322.910156 178.734375 329.804688 175.097656 336.332031 171.242188 C 337.464844 170.691406 338.828125 170.226562 340.089844 170.117188 C 340.640625 169.988281 341.332031 169.960938 341.882812 169.921875 C 345.5625 170.355469 348.960938 170.148438 352.71875 170.5625 C 357.324219 172.070312 361.082031 175.304688 365.648438 177.140625 C 369.738281 181.074219 375.28125 184.554688 380.238281 187.484375 C 383.484375 190.589844 387.320312 193.0625 391.539062 194.828125 C 393.277344 195.941406 395.335938 197.183594 397.199219 198.230469 C 397.347656 198.574219 397.773438 198.742188 398.085938 198.921875 C 398.128906 198.941406 398.167969 198.941406 398.207031 198.949219 C 400.71875 200.605469 403.351562 202.597656 406.242188 203.425781 C 416.832031 206.425781 427.875 209.738281 439.039062 208.023438 C 444.738281 206.246094 450.289062 204.105469 455.730469 202.054688 C 462.25 198.121094 468.304688 193.792969 474.082031 189.101562 C 479.042969 186.347656 484.542969 181.597656 488.546875 177.730469 C 493.101562 173.351562 498.832031 171.578125 504.480469 169.527344 C 506.917969 168.15625 509.933594 167.851562 512.644531 168.519531 C 514.863281 169.261719 517.144531 169.515625 519.449219 169.902344 C 522.210938 171.785156 525.121094 173.382812 528.027344 175.046875 C 528.867188 175.472656 529.753906 176.113281 530.296875 176.882812 C 530.90625 177.59375 531.371094 178.480469 531.933594 179.21875 C 533.996094 180.648438 535.503906 182.5625 536.371094 184.878906 L 541.269531 182.898438 C 540.1875 180.066406 538.410156 177.671875 535.984375 175.828125 C 535.984375 175.828125 534.675781 173.984375 534.675781 173.984375 C 534.390625 173.429688 533.582031 172.710938 533.207031 172.207031 C 530.140625 169.851562 526.421875 168.304688 523.246094 166.144531 C 520.730469 164.113281 517.210938 164.566406 514.292969 163.550781 C 507.261719 161.261719 501 165.652344 494.425781 167.605469 C 487.503906 170.570312 482.15625 176.871094 476.269531 181.507812 C 470.492188 184.800781 465.296875 189.660156 459.636719 193.210938 C 453.492188 198.21875 445.574219 200.132812 438.152344 202.824219 C 427.976562 204.363281 417.964844 201.1875 408.285156 198.566406 C 405.414062 197.765625 402.832031 195.6875 400.367188 194.078125 C 400.34375 194.058594 400.324219 194.03125 400.304688 194.011719 L 400.34375 193.941406 C 396.410156 191.605469 392.417969 189.304688 388.304688 187.375 C 385.535156 184.808594 381.285156 181.734375 377.953125 179.910156 C 370.371094 174.546875 363.121094 168.726562 354.335938 165.53125 C 349.832031 164.910156 345.550781 164.972656 341.085938 164.703125 C 340.394531 164.785156 339.546875 164.824219 338.886719 164.992188 C 337.398438 165.167969 335.789062 165.679688 334.4375 166.332031 C 327.359375 170.335938 320.0625 174.359375 313.621094 179.464844 C 310.625 181.84375 306.800781 185.265625 304.027344 187.898438 C 302.617188 188.832031 299.71875 190.667969 298.28125 191.546875 C 293.113281 196.890625 286.359375 200.085938 279.230469 202.054688 C 274.300781 203.898438 268.875 205.527344 263.601562 206.335938 C 260.851562 206.296875 257.871094 205.941406 255.179688 205.339844 L 255.179688 205.242188 C 255.0625 205.222656 254.921875 205.203125 254.796875 205.183594 C 254.714844 205.152344 254.628906 205.113281 254.550781 205.082031 C 254.449219 205.042969 254.339844 205.0625 254.242188 205.101562 C 249.253906 204.355469 244.175781 202.945312 239.363281 201.554688 C 233.359375 197.71875 226.800781 194.375 221.160156 190.085938 C 219.976562 188.953125 217.699219 186.664062 216.554688 185.519531 L 213.953125 183.804688 C 209.832031 181.28125 206.695312 177.492188 202.496094 175.128906 C 197.652344 173.105469 192.742188 171.578125 188.050781 169.210938 C 186.808594 168.785156 184.292969 168.027344 183.011719 167.722656 C 176.957031 166.570312 170.832031 167.722656 164.757812 167.417969 C 164.757812 167.417969 162.125 167.398438 162.125 167.398438 L 159.574219 167.917969 C 155.816406 168.816406 151.96875 169.980469 148.648438 172 C 146.8125 173.164062 144.613281 173.667969 142.683594 174.683594 C 141.429688 175.667969 139.960938 177.1875 138.796875 178.28125 C 127.035156 185.636719 128.621094 187.207031 121.066406 197.046875 L 125.710938 199.5625 L 127.199219 197.707031 C 129.527344 195.488281 130.179688 192.144531 132.507812 189.867188 C 134.980469 186.773438 138.738281 184.890625 141.894531 182.5625 C 142.976562 181.546875 144.257812 180.144531 145.382812 179.21875 C 147.160156 178.3125 149.171875 177.886719 150.828125 176.8125 C 153.824219 174.949219 157.304688 173.894531 160.707031 173.078125 C 160.707031 173.078125 163.023438 172.601562 163.023438 172.601562 L 165.421875 172.652344 C 170.953125 173.035156 176.523438 171.855469 182.042969 172.910156 C 187.429688 174.199219 192.230469 177.199219 197.515625 178.746094 C 203.601562 180.925781 207.582031 186.671875 213.324219 189.671875 C 214.464844 190.835938 216.824219 193.152344 217.984375 194.285156 C 223.914062 198.773438 230.835938 202.371094 237.175781 206.34375 C 242.429688 207.941406 247.773438 209.441406 253.226562 210.289062 C 253.671875 210.40625 254.125 210.496094 254.578125 210.574219 L 254.578125 210.59375 Z M 254.527344 210.566406 " fill-opacity="1" fill-rule="nonzero"/></g><path fill="#ffbd59" d="M 124.675781 158.699219 C 126.421875 157.242188 128.53125 155.238281 130.335938 153.9375 C 133.027344 152.476562 136.046875 151.542969 138.699219 150.011719 C 143.589844 147.292969 148.964844 145.613281 154.40625 144.351562 C 157.9375 143.445312 161.890625 143.386719 165.488281 143.503906 C 172.804688 143.03125 180.222656 142.753906 187.476562 144.027344 C 189.273438 144.453125 192.832031 145.425781 194.578125 146.007812 C 202.328125 149.628906 210.90625 151.726562 218.035156 156.519531 C 222.402344 159.488281 226.761719 163.957031 231.398438 166.519531 C 233.605469 169.0625 237.648438 172.542969 240.507812 174.199219 C 243.5625 175.847656 246.640625 177.640625 249.460938 179.652344 C 252.171875 180.175781 255.050781 180.808594 257.761719 181.242188 C 257.824219 181.328125 257.910156 181.398438 258.019531 181.429688 C 258.089844 181.449219 258.15625 181.449219 258.226562 181.429688 C 259.5 181.832031 260.859375 182.136719 262.179688 182.246094 C 264.332031 181.792969 266.34375 180.894531 268.472656 180.304688 C 273.144531 178.667969 278.65625 177.640625 282.246094 173.835938 C 282.246094 173.835938 284.296875 171.875 284.296875 171.875 C 287.769531 170.039062 290.875 167.5625 293.597656 164.714844 C 298.617188 160.574219 303.820312 155.898438 309.789062 153.128906 C 315.929688 149.074219 322.242188 144.71875 329.390625 142.441406 C 339.832031 139.519531 351.140625 140.664062 361.664062 142.546875 C 368.8125 144.71875 374.707031 149.195312 381.363281 152.28125 C 386.175781 156.550781 391.796875 160.328125 397.328125 163.550781 C 401.371094 167.75 406.726562 169.59375 411.566406 172.554688 C 411.605469 172.75 411.753906 172.898438 411.960938 172.976562 C 412 172.996094 412.050781 172.996094 412.097656 172.988281 C 413.054688 173.707031 414.347656 174.605469 415.324219 175.273438 C 417.699219 176.863281 420.84375 176.8125 423.488281 177.660156 C 438.339844 183.292969 449.183594 169.851562 460.9375 162.898438 C 469.714844 155.347656 478.332031 146.847656 489.9375 143.742188 C 499.324219 139.5 509.273438 137.28125 519.441406 140.023438 C 522.449219 140.824219 526.085938 141.246094 529.113281 142.125 C 533.726562 144.402344 538.421875 147.085938 542.859375 149.726562 C 546.203125 151.777344 549.644531 154.046875 552.039062 157.210938 C 556.328125 162.476562 561.417969 167.21875 563.65625 173.855469 L 568.554688 171.875 C 566.011719 164.566406 560.648438 159.320312 555.835938 153.542969 C 555.164062 152.578125 553.675781 151.226562 552.878906 150.328125 C 549.730469 147.65625 545.707031 145.28125 542.179688 143.140625 C 538.402344 141.21875 534.722656 138.878906 530.847656 137.136719 C 527.535156 136.179688 523.613281 135.664062 520.328125 134.816406 C 510.675781 132.292969 501.089844 133.714844 491.890625 137.222656 C 480.90625 140.949219 470.550781 146.363281 462.507812 154.714844 C 459.914062 157.121094 455.445312 160.40625 452.417969 162.042969 C 448.476562 165.296875 444.292969 168.207031 440.25 171.035156 C 437.617188 171.765625 435.527344 172.496094 433.28125 173.835938 C 428.617188 174.210938 424.316406 172.070312 419.703125 171.46875 C 418.558594 171.332031 417.523438 170.445312 416.605469 169.8125 C 416.113281 169.457031 415.066406 168.71875 414.59375 168.332031 L 414.574219 168.363281 L 414.644531 168.246094 C 413.617188 167.703125 412.296875 166.875 411.289062 166.28125 C 409.320312 164.992188 407.070312 164.269531 404.960938 163.136719 C 404.960938 163.136719 400.386719 159.242188 400.386719 159.242188 C 394.726562 155.96875 389.113281 152.144531 384.175781 147.8125 C 379.640625 145.613281 375.328125 143.089844 370.941406 140.585938 C 359.769531 135.003906 342.089844 134.195312 329.914062 136.828125 C 323.9375 138.328125 318.140625 141.34375 313.121094 144.71875 C 307.085938 148.710938 300.585938 151.757812 295.234375 156.519531 C 292.582031 158.601562 288.359375 162.320312 285.984375 164.664062 C 284.839844 165.40625 282.414062 166.875 281.242188 167.5625 C 281.242188 167.5625 279.320312 169.4375 279.320312 169.4375 C 275.433594 173.628906 269.269531 174.09375 264.332031 176.144531 C 263.53125 176.4375 262.703125 176.773438 261.886719 176.960938 C 260.871094 176.832031 259.804688 176.546875 258.847656 176.171875 C 258.808594 176.144531 258.777344 176.125 258.738281 176.101562 L 258.738281 176.035156 C 256.402344 175.640625 254.09375 175.195312 251.6875 174.832031 C 250.417969 174.042969 249.183594 173.085938 248.011719 172.21875 C 246.621094 171.578125 244.90625 170.652344 243.535156 169.84375 C 240.832031 168.292969 236.800781 164.785156 234.660156 162.328125 C 231.011719 160.238281 227.097656 156.964844 223.953125 154.203125 C 215.769531 147.734375 205.425781 145.082031 196.015625 140.890625 C 188.640625 138.359375 180.625 137.421875 172.863281 137.914062 C 167.628906 138.003906 162.414062 138.199219 157.167969 138.386719 C 152.03125 139.34375 146.726562 140.722656 141.875 142.597656 C 137.140625 144.855469 132.398438 147.152344 127.636719 149.371094 C 124.6875 151.542969 121.519531 154.675781 118.394531 156.621094 C 106.601562 164.230469 102.914062 172.070312 95.183594 182.996094 L 99.828125 185.511719 C 109.253906 172.1875 110.140625 168.144531 124.667969 158.671875 Z M 124.675781 158.699219 " fill-opacity="1" fill-rule="nonzero"/><path fill="#ffbd59" d="M 130.394531 166.648438 C 131.914062 165.335938 133.757812 163.53125 135.335938 162.359375 C 137.722656 161.074219 140.40625 160.316406 142.722656 158.9375 C 146.992188 156.5 151.714844 155.03125 156.488281 153.917969 L 159.691406 153.265625 L 162.976562 153.1875 C 170.527344 153.316406 178.140625 152.210938 185.644531 153.640625 C 191.984375 155.011719 197.859375 158.117188 203.875 160.386719 C 212.386719 162.714844 218.007812 169.882812 225.351562 174.230469 C 225.351562 174.230469 229.808594 178.6875 229.808594 178.6875 C 234.691406 182.445312 240.269531 185.097656 245.347656 188.546875 C 248.917969 189.414062 252.683594 190.371094 256.324219 190.933594 C 256.324219 190.984375 256.324219 191.042969 256.324219 191.089844 C 256.324219 191.625 257.191406 191.78125 257.289062 191.21875 C 259.054688 191.664062 260.949219 191.960938 262.753906 192.046875 C 264.644531 191.730469 266.714844 191.160156 268.5 190.5 C 276.171875 188.230469 284.445312 186.113281 289.96875 179.878906 C 293.644531 177.898438 296.890625 175.335938 299.789062 172.328125 C 304.570312 168.394531 309.601562 163.796875 315.289062 161.253906 C 321.167969 157.449219 327.003906 153.089844 333.925781 151.394531 C 339.871094 149.964844 346.0625 150.59375 352.078125 151.027344 C 358.746094 151.136719 364.9375 154.035156 370.332031 157.753906 C 376.472656 159.980469 380.734375 164.992188 386.246094 168.265625 L 391.621094 171.546875 C 395.9375 175.957031 401.707031 177.996094 406.855469 181.171875 C 406.84375 181.328125 406.894531 181.496094 407.039062 181.605469 C 407.160156 181.695312 407.328125 181.722656 407.476562 181.683594 C 409.003906 182.820312 410.769531 183.941406 412.386719 184.917969 C 416.210938 186.050781 420.105469 187.046875 424.019531 187.738281 C 440.804688 193.09375 454.113281 178.597656 467.171875 170.472656 C 477.820312 161.175781 482.710938 156.039062 496.652344 151.542969 C 504.355469 148.679688 509.628906 147.605469 517.804688 149.707031 C 520.296875 150.425781 523.363281 150.683594 525.890625 151.402344 C 529.703125 153.40625 533.609375 155.683594 537.335938 157.851562 C 540.128906 159.527344 543.035156 161.351562 544.96875 164.042969 C 545.984375 165.660156 547.976562 167.671875 549.308594 169.023438 C 551.792969 171.351562 553.152344 174.496094 554.542969 177.554688 L 559.445312 175.570312 C 557.335938 169.359375 552.730469 165.304688 548.765625 160.375 C 546.578125 157.429688 543.382812 155.367188 540.296875 153.484375 C 536.171875 151.058594 531.863281 148.574219 527.605469 146.414062 C 524.785156 145.613281 521.441406 145.269531 518.660156 144.5 C 509.707031 142.253906 503.425781 143.417969 494.964844 146.53125 C 485.085938 149.824219 475.875 154.746094 468.660156 162.339844 C 465.988281 164.804688 461.648438 167.976562 458.523438 169.703125 C 450.152344 176.28125 440.882812 183.882812 429.839844 183.628906 C 424.691406 182.640625 419.613281 181.496094 414.542969 180.105469 C 413.125 179.238281 411.488281 178.132812 410.109375 177.117188 C 410.085938 176.871094 409.859375 176.675781 409.613281 176.664062 C 404.574219 173.53125 398.914062 171.597656 394.6875 167.238281 C 394.6875 167.238281 389.3125 163.957031 389.3125 163.957031 C 380.191406 157.386719 371.089844 150.585938 360.28125 146.867188 C 351.210938 145.328125 341.605469 144.332031 332.527344 146.285156 C 325.042969 148.128906 318.640625 152.753906 312.320312 156.875 C 306.492188 159.539062 301.347656 164.183594 296.445312 168.226562 C 293.121094 172.179688 288.371094 174.121094 284.75 177.59375 C 280.097656 182.148438 273.246094 183.378906 267.328125 185.332031 C 265.820312 185.925781 264.042969 186.457031 262.4375 186.753906 C 260.890625 186.652344 259.261719 186.359375 257.761719 185.925781 C 257.664062 185.804688 257.515625 185.738281 257.359375 185.738281 C 254.144531 185.253906 250.761719 184.4375 247.558594 183.734375 C 246.039062 182.828125 244.363281 181.65625 242.972656 180.640625 C 237.777344 178.242188 232.441406 174.398438 228.597656 170.058594 C 223.894531 167.40625 219.988281 163.355469 215.519531 160.265625 C 208.777344 155.722656 200.632812 153.828125 193.335938 150.339844 C 191.679688 149.796875 188.316406 148.839844 186.621094 148.453125 C 179.757812 147.25 172.738281 147.558594 165.824219 148 C 162.433594 147.863281 158.683594 147.882812 155.351562 148.761719 C 150.226562 149.953125 145.148438 151.53125 140.542969 154.125 C 138.046875 155.582031 135.179688 156.441406 132.625 157.820312 C 130.917969 159.066406 128.886719 160.976562 127.289062 162.367188 C 113.308594 171.429688 112.835938 175.039062 103.78125 187.691406 L 108.425781 190.203125 C 117.085938 178.292969 117.023438 175.226562 130.375 166.648438 Z M 130.394531 166.648438 " fill-opacity="1" fill-rule="nonzero"/><path fill="#ffbd59" d="M 136.125 174.605469 C 137.425781 173.441406 138.984375 171.832031 140.34375 170.789062 C 142.425781 169.695312 144.773438 169.101562 146.765625 167.871094 C 150.375 165.71875 154.523438 164.457031 158.585938 163.492188 C 158.585938 163.492188 161.347656 162.929688 161.347656 162.929688 L 164.1875 162.929688 C 170.734375 163.175781 177.320312 162.03125 183.839844 163.265625 C 190.21875 164.765625 196.027344 168.085938 202.210938 170.148438 C 206.816406 171.8125 210.523438 175.304688 214.121094 178.539062 C 219.839844 181.597656 223.644531 187 229.304688 190.261719 C 233.289062 192.492188 237.363281 194.996094 241.246094 197.433594 C 245.636719 198.644531 250.269531 199.917969 254.804688 200.605469 C 254.933594 200.675781 255.082031 200.707031 255.25 200.746094 C 255.515625 200.8125 255.78125 200.882812 256.046875 200.953125 C 256.125 200.972656 256.207031 200.960938 256.273438 200.953125 C 258.5625 201.445312 261.015625 201.761719 263.335938 201.808594 C 265.742188 201.464844 268.402344 200.8125 270.691406 200.035156 C 278.5 197.589844 286.949219 195.695312 293.152344 190.125 C 297.15625 186.386719 302.402344 184.089844 306 179.890625 C 308.800781 177.613281 312.734375 174.28125 315.554688 172.148438 C 319.046875 170.324219 322.371094 168.332031 325.625 166.222656 C 330.671875 162.613281 336.597656 159.753906 342.929688 160.257812 C 347.21875 160.601562 351.410156 160.425781 355.71875 161.222656 C 362.699219 164.152344 369.828125 167.652344 375.476562 172.808594 C 378.503906 174.78125 382.765625 177.679688 385.949219 179.503906 C 390.503906 184.089844 396.628906 186.328125 402.070312 189.691406 C 402.042969 189.886719 402.109375 190.085938 402.296875 190.203125 C 402.425781 190.273438 402.585938 190.28125 402.722656 190.234375 C 403.964844 191.109375 405.589844 192.167969 406.832031 192.953125 C 411.578125 195.449219 417.167969 196.257812 422.394531 197.402344 C 432.699219 200.851562 441.886719 197.078125 451.363281 193.300781 C 459.085938 188.8125 465.808594 182.589844 473.410156 178.027344 C 482.847656 169.921875 487.414062 164.605469 499.769531 160.828125 C 502.136719 160.089844 504.640625 158.957031 507.085938 158.503906 C 509.589844 158.34375 512.46875 158.382812 514.90625 159.085938 C 517.371094 159.792969 520.171875 160.082031 522.683594 160.660156 C 524.222656 161.46875 525.839844 162.425781 527.238281 163.453125 C 528.710938 164.042969 530.484375 165.167969 531.84375 165.96875 C 534.082031 167.277344 536.46875 168.648438 537.9375 170.859375 C 537.9375 170.859375 539.46875 172.949219 539.46875 172.949219 C 542.179688 175.148438 544.21875 177.957031 545.472656 181.222656 L 550.371094 179.238281 C 548.914062 175.460938 546.597656 172.160156 543.519531 169.554688 C 543.519531 169.554688 541.734375 167.179688 541.734375 167.179688 C 540.007812 164.703125 537.347656 163.097656 534.8125 161.589844 C 531.390625 159.625 527.871094 157.546875 524.417969 155.664062 C 521.570312 154.980469 518.414062 154.589844 515.605469 153.839844 C 509.253906 152.152344 504.027344 153.574219 498.101562 155.8125 C 484.839844 160 480.175781 165.179688 470.058594 173.945312 C 462.792969 178.273438 456.292969 184.25 449.007812 188.566406 C 440.597656 191.820312 432.382812 195.460938 423.28125 192.1875 C 418.972656 191.425781 414.722656 190.300781 410.542969 189.03125 C 408.835938 188.003906 406.941406 186.820312 405.316406 185.636719 C 405.316406 185.472656 405.214844 185.292969 405.078125 185.214844 C 404.96875 185.15625 404.863281 185.144531 404.761719 185.164062 C 399.449219 181.863281 393.472656 179.742188 389.015625 175.214844 C 385.710938 173.351562 381.550781 170.492188 378.457031 168.460938 C 375.46875 165.523438 372.066406 163.207031 368.160156 161.6875 C 362.394531 157.398438 355.550781 155.179688 348.402344 155.230469 C 343.492188 155.089844 338.480469 154.558594 333.6875 156.105469 C 327.882812 158.007812 322.921875 161.667969 317.84375 164.972656 C 312.292969 167.40625 307.320312 171.980469 302.65625 175.808594 C 299.167969 179.910156 294.070312 182.097656 290.214844 185.738281 C 284.5625 190.953125 276.664062 192.609375 269.515625 194.886719 C 267.503906 195.597656 265.140625 196.21875 263.019531 196.535156 C 261.078125 196.476562 259.015625 196.1875 257.09375 195.753906 C 257.035156 195.667969 256.945312 195.597656 256.835938 195.578125 C 256.679688 195.546875 256.519531 195.527344 256.363281 195.5 C 256.207031 195.480469 256.058594 195.449219 255.898438 195.429688 C 255.8125 195.421875 255.730469 195.402344 255.644531 195.390625 C 255.644531 195.390625 255.632812 195.390625 255.625 195.390625 C 251.570312 194.769531 247.410156 193.664062 243.457031 192.640625 C 238.082031 189.058594 232.207031 186.199219 227.078125 182.265625 C 224.433594 179.316406 220.71875 176.242188 217.316406 174.339844 C 212.199219 169.160156 205.984375 165.492188 199.082031 163.292969 C 192.507812 160.640625 186.039062 157.429688 178.742188 157.398438 C 173.671875 157.230469 168.59375 157.851562 163.535156 157.664062 L 160.460938 157.714844 L 157.460938 158.324219 C 153.046875 159.371094 148.527344 160.742188 144.59375 163.046875 C 142.433594 164.359375 139.902344 165.039062 137.652344 166.234375 C 136.175781 167.347656 134.417969 169.0625 133.046875 170.304688 C 120.140625 178.558594 120.773438 181.042969 112.429688 192.355469 L 117.074219 194.867188 C 125.011719 184.335938 123.847656 182.355469 136.132812 174.59375 Z M 136.125 174.605469 " fill-opacity="1" fill-rule="nonzero"/><g transform="matrix(1, 0, 0, 1, 96, 30)"><g clip-path="url(#03e330721f)"><g fill="#cb6ce6" fill-opacity="1"><g transform="translate(2.42757, 83.8793)"><g><path d="M 4.125 -70.0625 C 4.125 -72.34375 3.910156 -74.207031 3.484375 -75.65625 C 3.066406 -77.113281 2.171875 -78.375 0.796875 -79.4375 L 24.46875 -79.4375 C 25.582031 -79.4375 26.507812 -79.066406 27.25 -78.328125 C 27.988281 -77.585938 28.554688 -76.6875 28.953125 -75.625 C 29.347656 -74.5625 29.546875 -73.53125 29.546875 -72.53125 C 29.546875 -69.613281 29.03125 -66.882812 28 -64.34375 C 26.96875 -61.800781 25.628906 -59.390625 23.984375 -57.109375 C 22.347656 -54.835938 20.613281 -52.628906 18.78125 -50.484375 C 16.957031 -48.335938 15.222656 -46.191406 13.578125 -44.046875 C 11.941406 -41.898438 10.601562 -39.675781 9.5625 -37.375 C 8.53125 -35.070312 8.015625 -32.625 8.015625 -30.03125 C 8.015625 -27.488281 8.582031 -25.34375 9.71875 -23.59375 C 10.863281 -21.84375 12.347656 -20.425781 14.171875 -19.34375 C 16.003906 -18.257812 17.992188 -17.460938 20.140625 -16.953125 C 22.285156 -16.453125 24.363281 -16.203125 26.375 -16.203125 C 29.019531 -16.203125 31.425781 -16.769531 33.59375 -17.90625 C 35.769531 -19.050781 37.503906 -20.722656 38.796875 -22.921875 C 40.097656 -25.117188 40.75 -27.832031 40.75 -31.0625 L 40.75 -70.0625 C 40.75 -72.34375 40.535156 -74.207031 40.109375 -75.65625 C 39.691406 -77.113281 38.796875 -78.375 37.421875 -79.4375 L 64.734375 -79.4375 C 63.410156 -78.375 62.523438 -77.113281 62.078125 -75.65625 C 61.628906 -74.207031 61.40625 -72.34375 61.40625 -70.0625 L 61.40625 -29.3125 C 61.40625 -24.4375 60.796875 -20.25 59.578125 -16.75 C 58.359375 -13.257812 56.71875 -10.347656 54.65625 -8.015625 C 52.59375 -5.691406 50.300781 -3.851562 47.78125 -2.5 C 45.269531 -1.15625 42.703125 -0.207031 40.078125 0.34375 C 37.453125 0.90625 34.976562 1.1875 32.65625 1.1875 C 30.320312 1.1875 27.859375 0.90625 25.265625 0.34375 C 22.671875 -0.207031 20.128906 -1.15625 17.640625 -2.5 C 15.148438 -3.851562 12.882812 -5.691406 10.84375 -8.015625 C 8.800781 -10.347656 7.171875 -13.257812 5.953125 -16.75 C 4.734375 -20.25 4.125 -24.4375 4.125 -29.3125 Z M 4.125 -70.0625 "/></g></g></g><g fill="#cb6ce6" fill-opacity="1"><g transform="translate(67.963224, 83.8793)"><g><path d="M 0.796875 -79.4375 L 32.8125 -79.4375 C 39.269531 -79.4375 44.441406 -78.414062 48.328125 -76.375 C 52.222656 -74.34375 55.054688 -71.59375 56.828125 -68.125 C 58.609375 -64.65625 59.5 -60.773438 59.5 -56.484375 C 59.5 -53.410156 59.085938 -50.375 58.265625 -47.375 C 57.441406 -44.382812 56.128906 -41.6875 54.328125 -39.28125 C 52.535156 -36.875 50.234375 -34.941406 47.421875 -33.484375 C 44.617188 -32.023438 41.226562 -31.296875 37.25 -31.296875 C 34.238281 -31.296875 31.632812 -31.734375 29.4375 -32.609375 C 27.238281 -33.484375 25.34375 -34.566406 23.75 -35.859375 C 22.164062 -37.160156 20.773438 -38.472656 19.578125 -39.796875 C 18.390625 -41.117188 17.332031 -42.21875 16.40625 -43.09375 C 15.476562 -43.96875 14.5625 -44.40625 13.65625 -44.40625 C 12.601562 -44.40625 11.890625 -44.140625 11.515625 -43.609375 C 11.148438 -43.078125 10.96875 -42.492188 10.96875 -41.859375 C 10.96875 -40.804688 11.519531 -39.75 12.625 -38.6875 C 13.738281 -37.625 15.234375 -36.585938 17.109375 -35.578125 C 18.992188 -34.578125 21.070312 -33.613281 23.34375 -32.6875 C 25.625 -31.757812 27.90625 -30.847656 30.1875 -29.953125 C 32.519531 -29.097656 34.992188 -28.15625 37.609375 -27.125 C 40.234375 -26.09375 42.789062 -24.941406 45.28125 -23.671875 C 47.769531 -22.398438 50.019531 -20.96875 52.03125 -19.375 C 54.039062 -17.789062 55.65625 -15.992188 56.875 -13.984375 C 58.09375 -11.972656 58.703125 -9.722656 58.703125 -7.234375 C 58.703125 -4.691406 58.316406 -2.847656 57.546875 -1.703125 C 56.785156 -0.566406 55.425781 0 53.46875 0 L 36.296875 0 C 35.773438 0 35.257812 -0.128906 34.75 -0.390625 C 34.25 -0.660156 34 -1.140625 34 -1.828125 C 34 -2.773438 34.117188 -3.609375 34.359375 -4.328125 C 34.597656 -5.046875 34.820312 -5.8125 35.03125 -6.625 C 35.238281 -7.445312 35.34375 -8.519531 35.34375 -9.84375 C 35.34375 -11.59375 34.800781 -13.429688 33.71875 -15.359375 C 32.632812 -17.296875 31.203125 -19.203125 29.421875 -21.078125 C 27.648438 -22.960938 25.734375 -24.738281 23.671875 -26.40625 C 21.609375 -28.082031 19.597656 -29.566406 17.640625 -30.859375 C 15.679688 -32.160156 13.929688 -33.179688 12.390625 -33.921875 C 10.859375 -34.660156 9.773438 -35.03125 9.140625 -35.03125 C 8.609375 -35.03125 8.234375 -34.816406 8.015625 -34.390625 C 7.804688 -33.972656 7.703125 -33.65625 7.703125 -33.4375 C 7.703125 -32.113281 8.21875 -30.921875 9.25 -29.859375 C 10.28125 -28.804688 11.617188 -27.773438 13.265625 -26.765625 C 14.910156 -25.765625 16.644531 -24.691406 18.46875 -23.546875 C 20.289062 -22.410156 22.007812 -21.128906 23.625 -19.703125 C 25.25 -18.273438 26.578125 -16.609375 27.609375 -14.703125 C 28.640625 -12.796875 29.15625 -10.566406 29.15625 -8.015625 C 29.15625 -6.960938 28.957031 -5.8125 28.5625 -4.5625 C 28.164062 -3.320312 27.554688 -2.25 26.734375 -1.34375 C 25.910156 -0.445312 24.835938 0 23.515625 0 L 0.875 0 C 1.9375 -1.0625 2.664062 -2.316406 3.0625 -3.765625 C 3.457031 -5.222656 3.65625 -7.09375 3.65625 -9.375 L 3.65625 -22.953125 L 3.578125 -39.71875 L 3.578125 -70.0625 C 3.578125 -72.34375 3.378906 -74.207031 2.984375 -75.65625 C 2.585938 -77.113281 1.859375 -78.375 0.796875 -79.4375 Z M 28.203125 -62.828125 C 26.191406 -62.828125 23.992188 -62.75 21.609375 -62.59375 C 19.222656 -62.4375 16.96875 -62.101562 14.84375 -61.59375 C 12.726562 -61.09375 10.992188 -60.3125 9.640625 -59.25 C 8.296875 -58.195312 7.625 -56.769531 7.625 -54.96875 C 7.625 -53.164062 8.335938 -51.75 9.765625 -50.71875 C 11.203125 -49.6875 13.097656 -48.90625 15.453125 -48.375 C 17.804688 -47.84375 20.375 -47.5 23.15625 -47.34375 C 25.9375 -47.1875 28.703125 -47.109375 31.453125 -47.109375 C 34.210938 -47.109375 36.992188 -47.1875 39.796875 -47.34375 C 42.609375 -47.5 45.191406 -47.84375 47.546875 -48.375 C 49.898438 -48.90625 51.789062 -49.6875 53.21875 -50.71875 C 54.65625 -51.75 55.375 -53.164062 55.375 -54.96875 C 55.375 -56.394531 54.789062 -57.582031 53.625 -58.53125 C 52.457031 -59.488281 50.90625 -60.257812 48.96875 -60.84375 C 47.039062 -61.425781 44.882812 -61.847656 42.5 -62.109375 C 40.113281 -62.378906 37.675781 -62.566406 35.1875 -62.671875 C 32.695312 -62.773438 30.367188 -62.828125 28.203125 -62.828125 Z M 28.203125 -62.828125 "/></g></g></g><g fill="#cb6ce6" fill-opacity="1"><g transform="translate(129.447588, 83.8793)"><g><path d="M 3.578125 -70.0625 C 3.578125 -72.34375 3.378906 -74.207031 2.984375 -75.65625 C 2.585938 -77.113281 1.859375 -78.375 0.796875 -79.4375 L 34.953125 -79.4375 C 40.085938 -79.4375 44.3125 -78.492188 47.625 -76.609375 C 50.9375 -74.734375 53.398438 -72.300781 55.015625 -69.3125 C 56.628906 -66.320312 57.4375 -63.128906 57.4375 -59.734375 C 57.4375 -57.515625 56.972656 -55.222656 56.046875 -52.859375 C 55.117188 -50.503906 53.726562 -48.332031 51.875 -46.34375 C 50.019531 -44.363281 47.710938 -42.765625 44.953125 -41.546875 C 42.203125 -40.328125 39 -39.71875 35.34375 -39.71875 C 32.4375 -39.71875 29.59375 -40.007812 26.8125 -40.59375 C 24.03125 -41.175781 21.5 -41.742188 19.21875 -42.296875 C 16.945312 -42.859375 15.066406 -43.140625 13.578125 -43.140625 C 13.054688 -43.140625 12.617188 -43.03125 12.265625 -42.8125 C 11.921875 -42.601562 11.75 -42.285156 11.75 -41.859375 C 11.75 -41.066406 12.53125 -40.390625 14.09375 -39.828125 C 15.65625 -39.273438 17.65625 -38.828125 20.09375 -38.484375 C 22.53125 -38.140625 25.054688 -37.847656 27.671875 -37.609375 C 30.296875 -37.367188 32.671875 -37.144531 34.796875 -36.9375 C 42.898438 -36.144531 48.832031 -34.039062 52.59375 -30.625 C 56.351562 -27.207031 58.234375 -22.769531 58.234375 -17.3125 C 58.234375 -14.1875 57.367188 -11.3125 55.640625 -8.6875 C 53.921875 -6.070312 51.601562 -3.96875 48.6875 -2.375 C 45.78125 -0.789062 42.5 0 38.84375 0 L 0.796875 0 C 1.859375 -1.0625 2.585938 -2.316406 2.984375 -3.765625 C 3.378906 -5.222656 3.578125 -7.09375 3.578125 -9.375 Z M 29.15625 -63.546875 C 26.457031 -63.546875 23.820312 -63.265625 21.25 -62.703125 C 18.675781 -62.148438 16.382812 -61.359375 14.375 -60.328125 C 12.363281 -59.296875 10.757812 -58.101562 9.5625 -56.75 C 8.375 -55.40625 7.78125 -53.9375 7.78125 -52.34375 C 7.78125 -50.539062 8.597656 -49.148438 10.234375 -48.171875 C 11.878906 -47.191406 13.789062 -46.703125 15.96875 -46.703125 C 20.519531 -46.703125 24.394531 -47.285156 27.59375 -48.453125 C 30.800781 -49.617188 33.253906 -51.046875 34.953125 -52.734375 C 36.648438 -54.429688 37.5 -56.078125 37.5 -57.671875 C 37.5 -59.265625 36.78125 -60.640625 35.34375 -61.796875 C 33.914062 -62.960938 31.851562 -63.546875 29.15625 -63.546875 Z M 8.8125 -36.9375 C 8.445312 -36.9375 8.195312 -36.84375 8.0625 -36.65625 C 7.925781 -36.46875 7.859375 -36.269531 7.859375 -36.0625 C 7.859375 -35.582031 8.175781 -34.894531 8.8125 -34 C 9.445312 -33.101562 10.210938 -32.148438 11.109375 -31.140625 C 12.015625 -30.128906 12.8125 -29.203125 13.5 -28.359375 C 14.988281 -26.660156 16.644531 -24.816406 18.46875 -22.828125 C 20.289062 -20.847656 22.328125 -19.15625 24.578125 -17.75 C 26.835938 -16.351562 29.238281 -15.65625 31.78125 -15.65625 C 33.363281 -15.65625 34.617188 -15.957031 35.546875 -16.5625 C 36.472656 -17.164062 37.132812 -17.90625 37.53125 -18.78125 C 37.925781 -19.65625 38.125 -20.492188 38.125 -21.296875 C 38.125 -23.253906 36.984375 -25.238281 34.703125 -27.25 C 32.429688 -29.257812 28.359375 -31.164062 22.484375 -32.96875 C 18.242188 -34.289062 15.15625 -35.28125 13.21875 -35.9375 C 11.289062 -36.601562 9.820312 -36.9375 8.8125 -36.9375 Z M 8.8125 -36.9375 "/></g></g></g><g fill="#cb6ce6" fill-opacity="1"><g transform="translate(189.263763, 83.8793)"><g><path d="M 0 0 C 1.644531 -1.375 2.96875 -3.460938 3.96875 -6.265625 C 4.976562 -9.078125 5.984375 -12.125 6.984375 -15.40625 C 8.578125 -20.8125 9.96875 -25.738281 11.15625 -30.1875 C 12.351562 -34.632812 13.414062 -38.960938 14.34375 -43.171875 C 15.269531 -47.378906 16.164062 -51.757812 17.03125 -56.3125 C 17.90625 -60.875 18.847656 -65.910156 19.859375 -71.421875 C 20.117188 -72.953125 20.117188 -74.457031 19.859375 -75.9375 C 19.597656 -77.425781 19.015625 -78.59375 18.109375 -79.4375 L 53.296875 -79.4375 C 52.453125 -78.59375 51.882812 -77.425781 51.59375 -75.9375 C 51.300781 -74.457031 51.289062 -72.953125 51.5625 -71.421875 C 52.5625 -65.910156 53.5 -60.875 54.375 -56.3125 C 55.25 -51.757812 56.148438 -47.378906 57.078125 -43.171875 C 58.003906 -38.960938 59.0625 -34.632812 60.25 -30.1875 C 61.445312 -25.738281 62.835938 -20.8125 64.421875 -15.40625 C 65.429688 -12.125 66.4375 -9.078125 67.4375 -6.265625 C 68.445312 -3.460938 69.773438 -1.375 71.421875 0 L 38.609375 0 C 39.503906 -1.0625 40.203125 -2.359375 40.703125 -3.890625 C 41.210938 -5.429688 41.46875 -7.019531 41.46875 -8.65625 C 41.46875 -9.976562 41.226562 -12.441406 40.75 -16.046875 C 40.269531 -19.648438 39.632812 -23.703125 38.84375 -28.203125 L 27.171875 -28.203125 C 28.546875 -24.867188 29.800781 -21.554688 30.9375 -18.265625 C 32.082031 -14.984375 32.65625 -11.703125 32.65625 -8.421875 C 32.65625 -7.203125 32.492188 -5.929688 32.171875 -4.609375 C 31.859375 -3.285156 31.289062 -2.1875 30.46875 -1.3125 C 29.644531 -0.4375 28.4375 0 26.84375 0 Z M 25.65625 -31.78125 L 38.125 -31.78125 C 37.382812 -35.59375 36.5625 -39.390625 35.65625 -43.171875 C 34.757812 -46.960938 33.796875 -50.421875 32.765625 -53.546875 C 31.734375 -56.671875 30.675781 -59.171875 29.59375 -61.046875 C 28.507812 -62.929688 27.410156 -63.875 26.296875 -63.875 C 24.921875 -63.875 23.832031 -63.289062 23.03125 -62.125 C 22.238281 -60.957031 21.671875 -59.429688 21.328125 -57.546875 C 20.984375 -55.671875 20.8125 -53.675781 20.8125 -51.5625 C 20.8125 -48.0625 21.300781 -44.671875 22.28125 -41.390625 C 23.257812 -38.109375 24.382812 -34.90625 25.65625 -31.78125 Z M 25.65625 -31.78125 "/></g></g></g><g fill="#cb6ce6" fill-opacity="1"><g transform="translate(260.677783, 83.8793)"><g><path d="M 0.796875 0 C 1.859375 -1.0625 2.585938 -2.316406 2.984375 -3.765625 C 3.378906 -5.222656 3.578125 -7.09375 3.578125 -9.375 L 3.578125 -70.0625 C 3.578125 -72.34375 3.378906 -74.207031 2.984375 -75.65625 C 2.585938 -77.113281 1.859375 -78.375 0.796875 -79.4375 L 24.46875 -79.4375 C 25.84375 -79.4375 27.03125 -79.179688 28.03125 -78.671875 C 29.039062 -78.171875 30.019531 -77.113281 30.96875 -75.5 C 31.925781 -73.882812 33 -71.5 34.1875 -68.34375 C 35.382812 -65.195312 36.882812 -60.953125 38.6875 -55.609375 L 46.15625 -33.359375 C 46.894531 -31.191406 47.617188 -29.035156 48.328125 -26.890625 C 49.046875 -24.742188 49.765625 -22.78125 50.484375 -21 C 51.203125 -19.226562 51.929688 -17.8125 52.671875 -16.75 C 53.410156 -15.695312 54.125 -15.171875 54.8125 -15.171875 C 55.707031 -15.171875 56.351562 -15.632812 56.75 -16.5625 C 57.15625 -17.488281 57.421875 -18.625 57.546875 -19.96875 C 57.679688 -21.320312 57.75 -22.609375 57.75 -23.828125 C 57.75 -28.910156 57.140625 -33.488281 55.921875 -37.5625 C 54.703125 -41.644531 53.207031 -45.34375 51.4375 -48.65625 C 49.664062 -51.96875 47.878906 -54.984375 46.078125 -57.703125 C 44.273438 -60.429688 42.765625 -63 41.546875 -65.40625 C 40.328125 -67.820312 39.71875 -70.171875 39.71875 -72.453125 C 39.71875 -74.878906 40.601562 -76.648438 42.375 -77.765625 C 44.15625 -78.878906 46.207031 -79.4375 48.53125 -79.4375 L 65.140625 -79.4375 C 64.078125 -78.375 63.347656 -77.113281 62.953125 -75.65625 C 62.554688 -74.207031 62.359375 -72.34375 62.359375 -70.0625 L 62.359375 -9.375 C 62.359375 -7.09375 62.554688 -5.222656 62.953125 -3.765625 C 63.347656 -2.316406 64.078125 -1.0625 65.140625 0 L 44.328125 0 C 42.046875 0 40.082031 -0.566406 38.4375 -1.703125 C 36.800781 -2.847656 35.410156 -4.398438 34.265625 -6.359375 C 33.128906 -8.316406 32.113281 -10.523438 31.21875 -12.984375 C 30.320312 -15.453125 29.421875 -18.035156 28.515625 -20.734375 C 27.984375 -22.316406 27.320312 -24.257812 26.53125 -26.5625 C 25.738281 -28.875 24.90625 -31.285156 24.03125 -33.796875 C 23.15625 -36.316406 22.332031 -38.660156 21.5625 -40.828125 C 20.800781 -43.003906 20.207031 -44.753906 19.78125 -46.078125 C 19.039062 -48.242188 18.3125 -50.398438 17.59375 -52.546875 C 16.875 -54.691406 16.15625 -56.648438 15.4375 -58.421875 C 14.726562 -60.203125 14.015625 -61.617188 13.296875 -62.671875 C 12.585938 -63.734375 11.863281 -64.265625 11.125 -64.265625 C 10.269531 -64.265625 9.628906 -63.800781 9.203125 -62.875 C 8.785156 -61.945312 8.507812 -60.804688 8.375 -59.453125 C 8.25 -58.109375 8.1875 -56.828125 8.1875 -55.609375 C 8.1875 -50.523438 8.796875 -45.941406 10.015625 -41.859375 C 11.234375 -37.785156 12.738281 -34.09375 14.53125 -30.78125 C 16.332031 -27.46875 18.117188 -24.445312 19.890625 -21.71875 C 21.671875 -19 23.171875 -16.429688 24.390625 -14.015625 C 25.609375 -11.609375 26.21875 -9.265625 26.21875 -6.984375 C 26.21875 -4.554688 25.328125 -2.785156 23.546875 -1.671875 C 21.773438 -0.554688 19.722656 0 17.390625 0 Z M 0.796875 0 "/></g></g></g><g fill="#cb6ce6" fill-opacity="1"><g transform="translate(326.610628, 83.8793)"><g/></g></g><g fill="#cb6ce6" fill-opacity="1"><g transform="translate(354.413627, 83.8793)"><g><path d="M 1.984375 -39.71875 C 1.984375 -43.632812 2.351562 -47.550781 3.09375 -51.46875 C 3.832031 -55.394531 4.96875 -59.101562 6.5 -62.59375 C 8.039062 -66.09375 9.953125 -69.191406 12.234375 -71.890625 C 14.515625 -74.585938 17.203125 -76.71875 20.296875 -78.28125 C 23.390625 -79.84375 26.898438 -80.625 30.828125 -80.625 C 32.890625 -80.625 34.859375 -80.359375 36.734375 -79.828125 C 38.617188 -79.304688 40.550781 -78.78125 42.53125 -78.25 C 44.519531 -77.71875 46.707031 -77.453125 49.09375 -77.453125 C 50.945312 -77.453125 52.414062 -77.71875 53.5 -78.25 C 54.582031 -78.78125 55.507812 -79.304688 56.28125 -79.828125 C 57.050781 -80.359375 57.832031 -80.625 58.625 -80.625 C 59.6875 -80.625 60.304688 -80.023438 60.484375 -78.828125 C 60.671875 -77.640625 60.566406 -76.160156 60.171875 -74.390625 C 59.773438 -72.617188 59.179688 -70.859375 58.390625 -69.109375 C 57.859375 -67.890625 57.078125 -66.445312 56.046875 -64.78125 C 55.015625 -63.113281 53.769531 -61.671875 52.3125 -60.453125 C 50.851562 -59.234375 49.171875 -58.625 47.265625 -58.625 C 44.460938 -58.625 41.960938 -58.941406 39.765625 -59.578125 C 37.566406 -60.210938 35.550781 -61.003906 33.71875 -61.953125 C 31.894531 -62.910156 30.144531 -63.863281 28.46875 -64.8125 C 26.800781 -65.769531 25.09375 -66.566406 23.34375 -67.203125 C 21.601562 -67.835938 19.703125 -68.15625 17.640625 -68.15625 C 16.316406 -68.15625 15.226562 -67.796875 14.375 -67.078125 C 13.53125 -66.367188 12.867188 -65.484375 12.390625 -64.421875 C 11.910156 -63.359375 11.578125 -62.296875 11.390625 -61.234375 C 11.210938 -60.179688 11.125 -59.285156 11.125 -58.546875 C 11.125 -55.265625 11.53125 -51.753906 12.34375 -48.015625 C 13.164062 -44.285156 14.367188 -40.617188 15.953125 -37.015625 C 17.546875 -33.410156 19.519531 -30.125 21.875 -27.15625 C 24.238281 -24.195312 26.96875 -21.828125 30.0625 -20.046875 C 33.164062 -18.273438 36.625 -17.390625 40.4375 -17.390625 C 43.238281 -17.390625 45.578125 -17.894531 47.453125 -18.90625 C 49.335938 -19.914062 50.835938 -21.210938 51.953125 -22.796875 C 53.066406 -24.390625 53.859375 -26.097656 54.328125 -27.921875 C 54.804688 -29.742188 55.046875 -31.476562 55.046875 -33.125 C 55.046875 -35.457031 54.859375 -37.257812 54.484375 -38.53125 C 54.117188 -39.800781 53.351562 -40.4375 52.1875 -40.4375 C 51.5 -40.4375 50.835938 -40.0625 50.203125 -39.3125 C 49.566406 -38.570312 48.890625 -37.671875 48.171875 -36.609375 C 47.460938 -35.554688 46.628906 -34.488281 45.671875 -33.40625 C 44.722656 -32.320312 43.546875 -31.40625 42.140625 -30.65625 C 40.734375 -29.914062 39.023438 -29.546875 37.015625 -29.546875 C 33.992188 -29.546875 31.488281 -30.140625 29.5 -31.328125 C 27.519531 -32.523438 26.023438 -34.101562 25.015625 -36.0625 C 24.015625 -38.019531 23.515625 -40.191406 23.515625 -42.578125 C 23.515625 -43.796875 23.859375 -44.972656 24.546875 -46.109375 C 25.234375 -47.253906 26.109375 -47.828125 27.171875 -47.828125 C 27.585938 -47.828125 28.085938 -47.625 28.671875 -47.21875 C 29.253906 -46.820312 29.984375 -46.410156 30.859375 -45.984375 C 31.734375 -45.566406 32.804688 -45.359375 34.078125 -45.359375 C 35.398438 -45.359375 36.601562 -45.539062 37.6875 -45.90625 C 38.78125 -46.28125 39.851562 -46.691406 40.90625 -47.140625 C 41.96875 -47.597656 43.171875 -48.007812 44.515625 -48.375 C 45.867188 -48.75 47.5 -48.9375 49.40625 -48.9375 C 50.894531 -48.9375 52.429688 -48.617188 54.015625 -47.984375 C 55.609375 -47.347656 56.957031 -46.328125 58.0625 -44.921875 C 59.175781 -43.515625 59.734375 -41.648438 59.734375 -39.328125 L 59.734375 -19.140625 C 59.046875 -16.753906 57.988281 -14.367188 56.5625 -11.984375 C 55.132812 -9.609375 53.332031 -7.414062 51.15625 -5.40625 C 48.988281 -3.394531 46.488281 -1.789062 43.65625 -0.59375 C 40.820312 0.59375 37.65625 1.1875 34.15625 1.1875 C 29.707031 1.1875 25.535156 0.34375 21.640625 -1.34375 C 17.753906 -3.039062 14.335938 -5.582031 11.390625 -8.96875 C 8.453125 -12.363281 6.148438 -16.628906 4.484375 -21.765625 C 2.816406 -26.898438 1.984375 -32.882812 1.984375 -39.71875 Z M 1.984375 -39.71875 "/></g></g></g><g fill="#cb6ce6" fill-opacity="1"><g transform="translate(416.533489, 83.8793)"><g><path d="M 0.796875 -79.4375 L 32.8125 -79.4375 C 39.269531 -79.4375 44.441406 -78.414062 48.328125 -76.375 C 52.222656 -74.34375 55.054688 -71.59375 56.828125 -68.125 C 58.609375 -64.65625 59.5 -60.773438 59.5 -56.484375 C 59.5 -53.410156 59.085938 -50.375 58.265625 -47.375 C 57.441406 -44.382812 56.128906 -41.6875 54.328125 -39.28125 C 52.535156 -36.875 50.234375 -34.941406 47.421875 -33.484375 C 44.617188 -32.023438 41.226562 -31.296875 37.25 -31.296875 C 34.238281 -31.296875 31.632812 -31.734375 29.4375 -32.609375 C 27.238281 -33.484375 25.34375 -34.566406 23.75 -35.859375 C 22.164062 -37.160156 20.773438 -38.472656 19.578125 -39.796875 C 18.390625 -41.117188 17.332031 -42.21875 16.40625 -43.09375 C 15.476562 -43.96875 14.5625 -44.40625 13.65625 -44.40625 C 12.601562 -44.40625 11.890625 -44.140625 11.515625 -43.609375 C 11.148438 -43.078125 10.96875 -42.492188 10.96875 -41.859375 C 10.96875 -40.804688 11.519531 -39.75 12.625 -38.6875 C 13.738281 -37.625 15.234375 -36.585938 17.109375 -35.578125 C 18.992188 -34.578125 21.070312 -33.613281 23.34375 -32.6875 C 25.625 -31.757812 27.90625 -30.847656 30.1875 -29.953125 C 32.519531 -29.097656 34.992188 -28.15625 37.609375 -27.125 C 40.234375 -26.09375 42.789062 -24.941406 45.28125 -23.671875 C 47.769531 -22.398438 50.019531 -20.96875 52.03125 -19.375 C 54.039062 -17.789062 55.65625 -15.992188 56.875 -13.984375 C 58.09375 -11.972656 58.703125 -9.722656 58.703125 -7.234375 C 58.703125 -4.691406 58.316406 -2.847656 57.546875 -1.703125 C 56.785156 -0.566406 55.425781 0 53.46875 0 L 36.296875 0 C 35.773438 0 35.257812 -0.128906 34.75 -0.390625 C 34.25 -0.660156 34 -1.140625 34 -1.828125 C 34 -2.773438 34.117188 -3.609375 34.359375 -4.328125 C 34.597656 -5.046875 34.820312 -5.8125 35.03125 -6.625 C 35.238281 -7.445312 35.34375 -8.519531 35.34375 -9.84375 C 35.34375 -11.59375 34.800781 -13.429688 33.71875 -15.359375 C 32.632812 -17.296875 31.203125 -19.203125 29.421875 -21.078125 C 27.648438 -22.960938 25.734375 -24.738281 23.671875 -26.40625 C 21.609375 -28.082031 19.597656 -29.566406 17.640625 -30.859375 C 15.679688 -32.160156 13.929688 -33.179688 12.390625 -33.921875 C 10.859375 -34.660156 9.773438 -35.03125 9.140625 -35.03125 C 8.609375 -35.03125 8.234375 -34.816406 8.015625 -34.390625 C 7.804688 -33.972656 7.703125 -33.65625 7.703125 -33.4375 C 7.703125 -32.113281 8.21875 -30.921875 9.25 -29.859375 C 10.28125 -28.804688 11.617188 -27.773438 13.265625 -26.765625 C 14.910156 -25.765625 16.644531 -24.691406 18.46875 -23.546875 C 20.289062 -22.410156 22.007812 -21.128906 23.625 -19.703125 C 25.25 -18.273438 26.578125 -16.609375 27.609375 -14.703125 C 28.640625 -12.796875 29.15625 -10.566406 29.15625 -8.015625 C 29.15625 -6.960938 28.957031 -5.8125 28.5625 -4.5625 C 28.164062 -3.320312 27.554688 -2.25 26.734375 -1.34375 C 25.910156 -0.445312 24.835938 0 23.515625 0 L 0.875 0 C 1.9375 -1.0625 2.664062 -2.316406 3.0625 -3.765625 C 3.457031 -5.222656 3.65625 -7.09375 3.65625 -9.375 L 3.65625 -22.953125 L 3.578125 -39.71875 L 3.578125 -70.0625 C 3.578125 -72.34375 3.378906 -74.207031 2.984375 -75.65625 C 2.585938 -77.113281 1.859375 -78.375 0.796875 -79.4375 Z M 28.203125 -62.828125 C 26.191406 -62.828125 23.992188 -62.75 21.609375 -62.59375 C 19.222656 -62.4375 16.96875 -62.101562 14.84375 -61.59375 C 12.726562 -61.09375 10.992188 -60.3125 9.640625 -59.25 C 8.296875 -58.195312 7.625 -56.769531 7.625 -54.96875 C 7.625 -53.164062 8.335938 -51.75 9.765625 -50.71875 C 11.203125 -49.6875 13.097656 -48.90625 15.453125 -48.375 C 17.804688 -47.84375 20.375 -47.5 23.15625 -47.34375 C 25.9375 -47.1875 28.703125 -47.109375 31.453125 -47.109375 C 34.210938 -47.109375 36.992188 -47.1875 39.796875 -47.34375 C 42.609375 -47.5 45.191406 -47.84375 47.546875 -48.375 C 49.898438 -48.90625 51.789062 -49.6875 53.21875 -50.71875 C 54.65625 -51.75 55.375 -53.164062 55.375 -54.96875 C 55.375 -56.394531 54.789062 -57.582031 53.625 -58.53125 C 52.457031 -59.488281 50.90625 -60.257812 48.96875 -60.84375 C 47.039062 -61.425781 44.882812 -61.847656 42.5 -62.109375 C 40.113281 -62.378906 37.675781 -62.566406 35.1875 -62.671875 C 32.695312 -62.773438 30.367188 -62.828125 28.203125 -62.828125 Z M 28.203125 -62.828125 "/></g></g></g><g fill="#cb6ce6" fill-opacity="1"><g transform="translate(478.017852, 83.8793)"><g><path d="M 1.984375 -39.71875 C 1.984375 -45.863281 2.722656 -51.4375 4.203125 -56.4375 C 5.691406 -61.445312 7.8125 -65.765625 10.5625 -69.390625 C 13.320312 -73.015625 16.617188 -75.789062 20.453125 -77.71875 C 24.296875 -79.65625 28.570312 -80.625 33.28125 -80.625 C 37.945312 -80.625 42.195312 -79.65625 46.03125 -77.71875 C 49.875 -75.789062 53.171875 -73.015625 55.921875 -69.390625 C 58.679688 -65.765625 60.800781 -61.445312 62.28125 -56.4375 C 63.757812 -51.4375 64.5 -45.863281 64.5 -39.71875 C 64.5 -33.570312 63.757812 -27.992188 62.28125 -22.984375 C 60.800781 -17.984375 58.679688 -13.671875 55.921875 -10.046875 C 53.171875 -6.421875 49.875 -3.640625 46.03125 -1.703125 C 42.195312 0.222656 37.945312 1.1875 33.28125 1.1875 C 28.570312 1.1875 24.296875 0.222656 20.453125 -1.703125 C 16.617188 -3.640625 13.320312 -6.421875 10.5625 -10.046875 C 7.8125 -13.671875 5.691406 -17.984375 4.203125 -22.984375 C 2.722656 -27.992188 1.984375 -33.570312 1.984375 -39.71875 Z M 26.84375 -75.234375 C 24.988281 -75.234375 23.53125 -74.238281 22.46875 -72.25 C 21.414062 -70.257812 20.703125 -67.566406 20.328125 -64.171875 C 19.960938 -60.785156 19.898438 -56.988281 20.140625 -52.78125 C 20.378906 -48.570312 20.867188 -44.21875 21.609375 -39.71875 C 22.347656 -35.21875 23.285156 -30.863281 24.421875 -26.65625 C 25.566406 -22.445312 26.863281 -18.644531 28.3125 -15.25 C 29.769531 -11.863281 31.332031 -9.175781 33 -7.1875 C 34.675781 -5.195312 36.382812 -4.203125 38.125 -4.203125 C 40.351562 -4.203125 42.128906 -5.195312 43.453125 -7.1875 C 44.773438 -9.175781 45.703125 -11.863281 46.234375 -15.25 C 46.765625 -18.644531 46.945312 -22.445312 46.78125 -26.65625 C 46.625 -30.863281 46.175781 -35.21875 45.4375 -39.71875 C 44.695312 -44.21875 43.703125 -48.570312 42.453125 -52.78125 C 41.210938 -56.988281 39.785156 -60.785156 38.171875 -64.171875 C 36.554688 -67.566406 34.796875 -70.257812 32.890625 -72.25 C 30.984375 -74.238281 28.96875 -75.234375 26.84375 -75.234375 Z M 26.84375 -75.234375 "/></g></g></g><g fill="#cb6ce6" fill-opacity="1"><g transform="translate(544.506781, 83.8793)"><g><path d="M 1.984375 -39.71875 C 1.984375 -45.863281 2.722656 -51.4375 4.203125 -56.4375 C 5.691406 -61.445312 7.8125 -65.765625 10.5625 -69.390625 C 13.320312 -73.015625 16.617188 -75.789062 20.453125 -77.71875 C 24.296875 -79.65625 28.570312 -80.625 33.28125 -80.625 C 37.945312 -80.625 42.195312 -79.65625 46.03125 -77.71875 C 49.875 -75.789062 53.171875 -73.015625 55.921875 -69.390625 C 58.679688 -65.765625 60.800781 -61.445312 62.28125 -56.4375 C 63.757812 -51.4375 64.5 -45.863281 64.5 -39.71875 C 64.5 -33.570312 63.757812 -27.992188 62.28125 -22.984375 C 60.800781 -17.984375 58.679688 -13.671875 55.921875 -10.046875 C 53.171875 -6.421875 49.875 -3.640625 46.03125 -1.703125 C 42.195312 0.222656 37.945312 1.1875 33.28125 1.1875 C 28.570312 1.1875 24.296875 0.222656 20.453125 -1.703125 C 16.617188 -3.640625 13.320312 -6.421875 10.5625 -10.046875 C 7.8125 -13.671875 5.691406 -17.984375 4.203125 -22.984375 C 2.722656 -27.992188 1.984375 -33.570312 1.984375 -39.71875 Z M 26.84375 -75.234375 C 24.988281 -75.234375 23.53125 -74.238281 22.46875 -72.25 C 21.414062 -70.257812 20.703125 -67.566406 20.328125 -64.171875 C 19.960938 -60.785156 19.898438 -56.988281 20.140625 -52.78125 C 20.378906 -48.570312 20.867188 -44.21875 21.609375 -39.71875 C 22.347656 -35.21875 23.285156 -30.863281 24.421875 -26.65625 C 25.566406 -22.445312 26.863281 -18.644531 28.3125 -15.25 C 29.769531 -11.863281 31.332031 -9.175781 33 -7.1875 C 34.675781 -5.195312 36.382812 -4.203125 38.125 -4.203125 C 40.351562 -4.203125 42.128906 -5.195312 43.453125 -7.1875 C 44.773438 -9.175781 45.703125 -11.863281 46.234375 -15.25 C 46.765625 -18.644531 46.945312 -22.445312 46.78125 -26.65625 C 46.625 -30.863281 46.175781 -35.21875 45.4375 -39.71875 C 44.695312 -44.21875 43.703125 -48.570312 42.453125 -52.78125 C 41.210938 -56.988281 39.785156 -60.785156 38.171875 -64.171875 C 36.554688 -67.566406 34.796875 -70.257812 32.890625 -72.25 C 30.984375 -74.238281 28.96875 -75.234375 26.84375 -75.234375 Z M 26.84375 -75.234375 "/></g></g></g><g fill="#cb6ce6" fill-opacity="1"><g transform="translate(610.99571, 83.8793)"><g><path d="M 3.578125 -70.0625 C 3.578125 -72.34375 3.378906 -74.207031 2.984375 -75.65625 C 2.585938 -77.113281 1.859375 -78.375 0.796875 -79.4375 L 26.0625 -79.4375 C 27.96875 -79.4375 29.488281 -78.835938 30.625 -77.640625 C 31.757812 -76.453125 32.773438 -74.585938 33.671875 -72.046875 C 34.578125 -69.503906 35.597656 -66.191406 36.734375 -62.109375 C 37.878906 -58.035156 39.40625 -53.140625 41.3125 -47.421875 C 43.21875 -53.140625 44.738281 -58.035156 45.875 -62.109375 C 47.007812 -66.191406 48.023438 -69.503906 48.921875 -72.046875 C 49.828125 -74.585938 50.847656 -76.453125 51.984375 -77.640625 C 53.128906 -78.835938 54.65625 -79.4375 56.5625 -79.4375 L 81.65625 -79.4375 C 80.601562 -78.375 79.875 -77.113281 79.46875 -75.65625 C 79.070312 -74.207031 78.875 -72.34375 78.875 -70.0625 L 78.875 -9.375 C 78.875 -7.09375 79.070312 -5.222656 79.46875 -3.765625 C 79.875 -2.316406 80.601562 -1.0625 81.65625 0 L 55.046875 0 C 56.109375 -1.0625 56.835938 -2.316406 57.234375 -3.765625 C 57.628906 -5.222656 57.828125 -7.09375 57.828125 -9.375 L 57.828125 -55.609375 C 57.828125 -56.828125 57.757812 -58.109375 57.625 -59.453125 C 57.5 -60.804688 57.234375 -61.945312 56.828125 -62.875 C 56.429688 -63.800781 55.785156 -64.265625 54.890625 -64.265625 C 54.148438 -64.265625 53.328125 -63.390625 52.421875 -61.640625 C 51.523438 -59.890625 50.585938 -57.554688 49.609375 -54.640625 C 48.628906 -51.734375 47.648438 -48.492188 46.671875 -44.921875 C 45.691406 -41.347656 44.75 -37.734375 43.84375 -34.078125 C 43.050781 -30.742188 42.296875 -27.523438 41.578125 -24.421875 C 40.867188 -21.328125 40.179688 -18.535156 39.515625 -16.046875 C 38.859375 -13.554688 38.1875 -11.59375 37.5 -10.15625 C 36.8125 -8.726562 36.066406 -8.015625 35.265625 -8.015625 C 34.578125 -8.015625 33.796875 -8.796875 32.921875 -10.359375 C 32.046875 -11.921875 31.144531 -13.988281 30.21875 -16.5625 C 29.289062 -19.132812 28.320312 -21.96875 27.3125 -25.0625 C 26.3125 -28.15625 25.3125 -31.238281 24.3125 -34.3125 C 23.988281 -35.269531 23.535156 -36.648438 22.953125 -38.453125 C 22.367188 -40.253906 21.691406 -42.28125 20.921875 -44.53125 C 20.160156 -46.78125 19.34375 -49.054688 18.46875 -51.359375 C 17.59375 -53.660156 16.71875 -55.789062 15.84375 -57.75 C 14.96875 -59.707031 14.117188 -61.28125 13.296875 -62.46875 C 12.484375 -63.664062 11.757812 -64.265625 11.125 -64.265625 C 10.269531 -64.265625 9.628906 -63.800781 9.203125 -62.875 C 8.785156 -61.945312 8.507812 -60.804688 8.375 -59.453125 C 8.25 -58.109375 8.1875 -56.828125 8.1875 -55.609375 C 8.1875 -50.523438 8.796875 -45.941406 10.015625 -41.859375 C 11.234375 -37.785156 12.738281 -34.09375 14.53125 -30.78125 C 16.332031 -27.46875 18.117188 -24.445312 19.890625 -21.71875 C 21.671875 -19 23.171875 -16.429688 24.390625 -14.015625 C 25.609375 -11.609375 26.21875 -9.265625 26.21875 -6.984375 C 26.21875 -4.554688 25.328125 -2.785156 23.546875 -1.671875 C 21.773438 -0.554688 19.722656 0 17.390625 0 L 0.796875 0 C 1.859375 -1.0625 2.585938 -2.316406 2.984375 -3.765625 C 3.378906 -5.222656 3.578125 -7.09375 3.578125 -9.375 Z M 3.578125 -70.0625 "/></g></g></g><g fill="#cb6ce6" fill-opacity="1"><g transform="translate(693.451489, 83.8793)"><g><path d="M 0.796875 0 C 1.859375 -1.0625 2.585938 -2.316406 2.984375 -3.765625 C 3.378906 -5.222656 3.578125 -7.09375 3.578125 -9.375 L 3.578125 -70.0625 C 3.578125 -72.34375 3.378906 -74.207031 2.984375 -75.65625 C 2.585938 -77.113281 1.859375 -78.375 0.796875 -79.4375 L 27.40625 -79.4375 C 26.34375 -78.375 25.613281 -77.113281 25.21875 -75.65625 C 24.820312 -74.207031 24.625 -72.34375 24.625 -70.0625 L 24.625 -9.375 C 24.625 -7.09375 24.820312 -5.222656 25.21875 -3.765625 C 25.613281 -2.316406 26.34375 -1.0625 27.40625 0 Z M 0.796875 0 "/></g></g></g><g fill="#cb6ce6" fill-opacity="1"><g transform="translate(721.651682, 83.8793)"><g><path d="M 0.796875 0 C 1.859375 -1.0625 2.585938 -2.316406 2.984375 -3.765625 C 3.378906 -5.222656 3.578125 -7.09375 3.578125 -9.375 L 3.578125 -70.0625 C 3.578125 -72.34375 3.378906 -74.207031 2.984375 -75.65625 C 2.585938 -77.113281 1.859375 -78.375 0.796875 -79.4375 L 24.46875 -79.4375 C 25.84375 -79.4375 27.03125 -79.179688 28.03125 -78.671875 C 29.039062 -78.171875 30.019531 -77.113281 30.96875 -75.5 C 31.925781 -73.882812 33 -71.5 34.1875 -68.34375 C 35.382812 -65.195312 36.882812 -60.953125 38.6875 -55.609375 L 46.15625 -33.359375 C 46.894531 -31.191406 47.617188 -29.035156 48.328125 -26.890625 C 49.046875 -24.742188 49.765625 -22.78125 50.484375 -21 C 51.203125 -19.226562 51.929688 -17.8125 52.671875 -16.75 C 53.410156 -15.695312 54.125 -15.171875 54.8125 -15.171875 C 55.707031 -15.171875 56.351562 -15.632812 56.75 -16.5625 C 57.15625 -17.488281 57.421875 -18.625 57.546875 -19.96875 C 57.679688 -21.320312 57.75 -22.609375 57.75 -23.828125 C 57.75 -28.910156 57.140625 -33.488281 55.921875 -37.5625 C 54.703125 -41.644531 53.207031 -45.34375 51.4375 -48.65625 C 49.664062 -51.96875 47.878906 -54.984375 46.078125 -57.703125 C 44.273438 -60.429688 42.765625 -63 41.546875 -65.40625 C 40.328125 -67.820312 39.71875 -70.171875 39.71875 -72.453125 C 39.71875 -74.878906 40.601562 -76.648438 42.375 -77.765625 C 44.15625 -78.878906 46.207031 -79.4375 48.53125 -79.4375 L 65.140625 -79.4375 C 64.078125 -78.375 63.347656 -77.113281 62.953125 -75.65625 C 62.554688 -74.207031 62.359375 -72.34375 62.359375 -70.0625 L 62.359375 -9.375 C 62.359375 -7.09375 62.554688 -5.222656 62.953125 -3.765625 C 63.347656 -2.316406 64.078125 -1.0625 65.140625 0 L 44.328125 0 C 42.046875 0 40.082031 -0.566406 38.4375 -1.703125 C 36.800781 -2.847656 35.410156 -4.398438 34.265625 -6.359375 C 33.128906 -8.316406 32.113281 -10.523438 31.21875 -12.984375 C 30.320312 -15.453125 29.421875 -18.035156 28.515625 -20.734375 C 27.984375 -22.316406 27.320312 -24.257812 26.53125 -26.5625 C 25.738281 -28.875 24.90625 -31.285156 24.03125 -33.796875 C 23.15625 -36.316406 22.332031 -38.660156 21.5625 -40.828125 C 20.800781 -43.003906 20.207031 -44.753906 19.78125 -46.078125 C 19.039062 -48.242188 18.3125 -50.398438 17.59375 -52.546875 C 16.875 -54.691406 16.15625 -56.648438 15.4375 -58.421875 C 14.726562 -60.203125 14.015625 -61.617188 13.296875 -62.671875 C 12.585938 -63.734375 11.863281 -64.265625 11.125 -64.265625 C 10.269531 -64.265625 9.628906 -63.800781 9.203125 -62.875 C 8.785156 -61.945312 8.507812 -60.804688 8.375 -59.453125 C 8.25 -58.109375 8.1875 -56.828125 8.1875 -55.609375 C 8.1875 -50.523438 8.796875 -45.941406 10.015625 -41.859375 C 11.234375 -37.785156 12.738281 -34.09375 14.53125 -30.78125 C 16.332031 -27.46875 18.117188 -24.445312 19.890625 -21.71875 C 21.671875 -19 23.171875 -16.429688 24.390625 -14.015625 C 25.609375 -11.609375 26.21875 -9.265625 26.21875 -6.984375 C 26.21875 -4.554688 25.328125 -2.785156 23.546875 -1.671875 C 21.773438 -0.554688 19.722656 0 17.390625 0 Z M 0.796875 0 "/></g></g></g><g fill="#cb6ce6" fill-opacity="1"><g transform="translate(787.584527, 83.8793)"><g><path d="M 1.984375 -39.71875 C 1.984375 -43.632812 2.351562 -47.550781 3.09375 -51.46875 C 3.832031 -55.394531 4.96875 -59.101562 6.5 -62.59375 C 8.039062 -66.09375 9.953125 -69.191406 12.234375 -71.890625 C 14.515625 -74.585938 17.203125 -76.71875 20.296875 -78.28125 C 23.390625 -79.84375 26.898438 -80.625 30.828125 -80.625 C 32.890625 -80.625 34.859375 -80.359375 36.734375 -79.828125 C 38.617188 -79.304688 40.550781 -78.78125 42.53125 -78.25 C 44.519531 -77.71875 46.707031 -77.453125 49.09375 -77.453125 C 50.945312 -77.453125 52.414062 -77.71875 53.5 -78.25 C 54.582031 -78.78125 55.507812 -79.304688 56.28125 -79.828125 C 57.050781 -80.359375 57.832031 -80.625 58.625 -80.625 C 59.6875 -80.625 60.304688 -80.023438 60.484375 -78.828125 C 60.671875 -77.640625 60.566406 -76.160156 60.171875 -74.390625 C 59.773438 -72.617188 59.179688 -70.859375 58.390625 -69.109375 C 57.859375 -67.890625 57.078125 -66.445312 56.046875 -64.78125 C 55.015625 -63.113281 53.769531 -61.671875 52.3125 -60.453125 C 50.851562 -59.234375 49.171875 -58.625 47.265625 -58.625 C 44.460938 -58.625 41.960938 -58.941406 39.765625 -59.578125 C 37.566406 -60.210938 35.550781 -61.003906 33.71875 -61.953125 C 31.894531 -62.910156 30.144531 -63.863281 28.46875 -64.8125 C 26.800781 -65.769531 25.09375 -66.566406 23.34375 -67.203125 C 21.601562 -67.835938 19.703125 -68.15625 17.640625 -68.15625 C 16.316406 -68.15625 15.226562 -67.796875 14.375 -67.078125 C 13.53125 -66.367188 12.867188 -65.484375 12.390625 -64.421875 C 11.910156 -63.359375 11.578125 -62.296875 11.390625 -61.234375 C 11.210938 -60.179688 11.125 -59.285156 11.125 -58.546875 C 11.125 -55.265625 11.53125 -51.753906 12.34375 -48.015625 C 13.164062 -44.285156 14.367188 -40.617188 15.953125 -37.015625 C 17.546875 -33.410156 19.519531 -30.125 21.875 -27.15625 C 24.238281 -24.195312 26.96875 -21.828125 30.0625 -20.046875 C 33.164062 -18.273438 36.625 -17.390625 40.4375 -17.390625 C 43.238281 -17.390625 45.578125 -17.894531 47.453125 -18.90625 C 49.335938 -19.914062 50.835938 -21.210938 51.953125 -22.796875 C 53.066406 -24.390625 53.859375 -26.097656 54.328125 -27.921875 C 54.804688 -29.742188 55.046875 -31.476562 55.046875 -33.125 C 55.046875 -35.457031 54.859375 -37.257812 54.484375 -38.53125 C 54.117188 -39.800781 53.351562 -40.4375 52.1875 -40.4375 C 51.5 -40.4375 50.835938 -40.0625 50.203125 -39.3125 C 49.566406 -38.570312 48.890625 -37.671875 48.171875 -36.609375 C 47.460938 -35.554688 46.628906 -34.488281 45.671875 -33.40625 C 44.722656 -32.320312 43.546875 -31.40625 42.140625 -30.65625 C 40.734375 -29.914062 39.023438 -29.546875 37.015625 -29.546875 C 33.992188 -29.546875 31.488281 -30.140625 29.5 -31.328125 C 27.519531 -32.523438 26.023438 -34.101562 25.015625 -36.0625 C 24.015625 -38.019531 23.515625 -40.191406 23.515625 -42.578125 C 23.515625 -43.796875 23.859375 -44.972656 24.546875 -46.109375 C 25.234375 -47.253906 26.109375 -47.828125 27.171875 -47.828125 C 27.585938 -47.828125 28.085938 -47.625 28.671875 -47.21875 C 29.253906 -46.820312 29.984375 -46.410156 30.859375 -45.984375 C 31.734375 -45.566406 32.804688 -45.359375 34.078125 -45.359375 C 35.398438 -45.359375 36.601562 -45.539062 37.6875 -45.90625 C 38.78125 -46.28125 39.851562 -46.691406 40.90625 -47.140625 C 41.96875 -47.597656 43.171875 -48.007812 44.515625 -48.375 C 45.867188 -48.75 47.5 -48.9375 49.40625 -48.9375 C 50.894531 -48.9375 52.429688 -48.617188 54.015625 -47.984375 C 55.609375 -47.347656 56.957031 -46.328125 58.0625 -44.921875 C 59.175781 -43.515625 59.734375 -41.648438 59.734375 -39.328125 L 59.734375 -19.140625 C 59.046875 -16.753906 57.988281 -14.367188 56.5625 -11.984375 C 55.132812 -9.609375 53.332031 -7.414062 51.15625 -5.40625 C 48.988281 -3.394531 46.488281 -1.789062 43.65625 -0.59375 C 40.820312 0.59375 37.65625 1.1875 34.15625 1.1875 C 29.707031 1.1875 25.535156 0.34375 21.640625 -1.34375 C 17.753906 -3.039062 14.335938 -5.582031 11.390625 -8.96875 C 8.453125 -12.363281 6.148438 -16.628906 4.484375 -21.765625 C 2.816406 -26.898438 1.984375 -32.882812 1.984375 -39.71875 Z M 1.984375 -39.71875 "/></g></g></g></g></g><g clip-path="url(#18e4081e68)"><path fill="#ffbd59" d="M 828.246094 136.597656 C 825.492188 136.023438 822.476562 135.679688 819.675781 135.660156 C 815.613281 136.167969 811.488281 137.421875 807.605469 138.578125 C 799.570312 141.195312 791.355469 143.832031 785.402344 150.089844 C 785.402344 150.089844 782.640625 151.8125 782.640625 151.8125 L 779.96875 153.554688 L 777.667969 155.660156 C 776.375 157.03125 772.621094 160.082031 771.128906 161.3125 C 765.632812 165.742188 759.320312 169.074219 753.34375 172.605469 C 752.304688 173.109375 751.058594 173.535156 749.902344 173.632812 C 749.398438 173.753906 748.765625 173.777344 748.261719 173.816406 C 744.894531 173.417969 741.777344 173.609375 738.335938 173.226562 C 734.121094 171.847656 730.679688 168.886719 726.5 167.207031 C 722.753906 163.605469 717.679688 160.417969 713.140625 157.734375 C 710.167969 154.890625 706.65625 152.625 702.792969 151.007812 C 701.203125 149.988281 699.316406 148.851562 697.609375 147.894531 C 697.472656 147.578125 697.085938 147.425781 696.796875 147.261719 C 696.761719 147.246094 696.726562 147.246094 696.6875 147.234375 C 694.386719 145.71875 691.976562 143.894531 689.332031 143.136719 C 679.632812 140.390625 669.523438 137.359375 659.300781 138.929688 C 654.082031 140.554688 649 142.511719 644.015625 144.390625 C 638.046875 147.992188 632.503906 151.957031 627.214844 156.253906 C 622.671875 158.773438 617.636719 163.125 613.96875 166.664062 C 609.796875 170.671875 604.550781 172.296875 599.378906 174.175781 C 597.148438 175.429688 594.386719 175.710938 591.902344 175.097656 C 589.871094 174.421875 587.785156 174.183594 585.671875 173.832031 C 583.144531 172.109375 580.480469 170.644531 577.820312 169.121094 C 577.050781 168.730469 576.238281 168.144531 575.742188 167.441406 C 575.183594 166.789062 574.757812 165.976562 574.242188 165.300781 C 572.355469 163.992188 570.976562 162.242188 570.179688 160.117188 L 565.695312 161.933594 C 566.6875 164.523438 568.3125 166.71875 570.53125 168.40625 C 570.53125 168.40625 571.734375 170.09375 571.734375 170.09375 C 571.996094 170.601562 572.734375 171.261719 573.078125 171.71875 C 575.886719 173.878906 579.289062 175.296875 582.199219 177.273438 C 584.5 179.132812 587.722656 178.71875 590.394531 179.648438 C 596.832031 181.742188 602.566406 177.726562 608.589844 175.9375 C 614.925781 173.21875 619.820312 167.449219 625.210938 163.207031 C 630.5 160.191406 635.257812 155.738281 640.441406 152.488281 C 646.066406 147.902344 653.316406 146.152344 660.113281 143.6875 C 669.433594 142.277344 678.597656 145.1875 687.460938 147.585938 C 690.089844 148.320312 692.453125 150.222656 694.710938 151.695312 C 694.730469 151.714844 694.746094 151.742188 694.765625 151.757812 L 694.730469 151.820312 C 698.332031 153.960938 701.988281 156.066406 705.753906 157.835938 C 708.289062 160.183594 712.183594 163 715.234375 164.667969 C 722.175781 169.582031 728.8125 174.90625 736.855469 177.832031 C 740.984375 178.402344 744.902344 178.347656 748.992188 178.589844 C 749.625 178.519531 750.398438 178.484375 751.003906 178.328125 C 752.367188 178.167969 753.839844 177.699219 755.078125 177.101562 C 761.558594 173.4375 768.242188 169.753906 774.136719 165.074219 C 776.882812 162.898438 780.382812 159.765625 782.921875 157.355469 C 784.210938 156.5 786.867188 154.820312 788.183594 154.015625 C 792.914062 149.121094 799.101562 146.195312 805.628906 144.390625 C 810.140625 142.703125 815.109375 141.214844 819.9375 140.472656 C 822.457031 140.507812 825.183594 140.832031 827.648438 141.382812 L 827.648438 141.476562 C 827.757812 141.492188 827.882812 141.511719 828 141.527344 C 828.074219 141.554688 828.152344 141.59375 828.226562 141.621094 C 828.316406 141.65625 828.417969 141.636719 828.507812 141.601562 C 833.074219 142.289062 837.722656 143.578125 842.128906 144.851562 C 847.628906 148.363281 853.632812 151.425781 858.796875 155.351562 C 859.878906 156.390625 861.964844 158.484375 863.011719 159.53125 L 865.398438 161.101562 C 869.171875 163.414062 872.042969 166.882812 875.886719 169.046875 C 880.320312 170.898438 884.816406 172.296875 889.113281 174.464844 C 890.253906 174.855469 892.554688 175.546875 893.730469 175.828125 C 899.273438 176.886719 904.878906 175.828125 910.441406 176.109375 C 910.441406 176.109375 912.851562 176.125 912.851562 176.125 L 915.191406 175.648438 C 918.628906 174.828125 922.152344 173.761719 925.191406 171.910156 C 926.871094 170.84375 928.886719 170.382812 930.65625 169.453125 C 931.800781 168.550781 933.148438 167.160156 934.210938 166.160156 C 944.984375 159.421875 943.53125 157.988281 950.445312 148.976562 L 946.195312 146.675781 L 944.832031 148.371094 C 942.699219 150.402344 942.105469 153.464844 939.972656 155.550781 C 937.707031 158.386719 934.265625 160.109375 931.378906 162.242188 C 930.382812 163.171875 929.210938 164.453125 928.183594 165.300781 C 926.558594 166.132812 924.714844 166.519531 923.199219 167.503906 C 920.453125 169.210938 917.265625 170.175781 914.152344 170.925781 C 914.152344 170.925781 912.03125 171.359375 912.03125 171.359375 L 909.835938 171.3125 C 904.769531 170.960938 899.667969 172.046875 894.613281 171.078125 C 889.683594 169.898438 885.285156 167.152344 880.449219 165.734375 C 874.878906 163.738281 871.230469 158.476562 865.976562 155.730469 C 864.925781 154.664062 862.769531 152.542969 861.703125 151.503906 C 856.277344 147.398438 849.941406 144.101562 844.136719 140.464844 C 839.324219 139 834.429688 137.628906 829.4375 136.851562 C 829.03125 136.742188 828.613281 136.664062 828.199219 136.589844 L 828.199219 136.574219 Z M 828.246094 136.597656 " fill-opacity="1" fill-rule="nonzero"/></g><path fill="#ffbd59" d="M 947.140625 184.089844 C 945.542969 185.425781 943.613281 187.257812 941.960938 188.449219 C 939.496094 189.785156 936.730469 190.644531 934.304688 192.042969 C 929.824219 194.535156 924.90625 196.070312 919.921875 197.226562 C 916.6875 198.058594 913.066406 198.109375 909.773438 198.003906 C 903.074219 198.4375 896.285156 198.6875 889.640625 197.523438 C 887.996094 197.136719 884.734375 196.242188 883.136719 195.710938 C 876.042969 192.394531 868.1875 190.472656 861.660156 186.085938 C 857.660156 183.367188 853.667969 179.277344 849.425781 176.929688 C 847.402344 174.601562 843.703125 171.414062 841.082031 169.898438 C 838.285156 168.390625 835.46875 166.746094 832.886719 164.902344 C 830.402344 164.425781 827.765625 163.847656 825.28125 163.449219 C 825.230469 163.371094 825.148438 163.304688 825.046875 163.277344 C 824.984375 163.261719 824.921875 163.261719 824.859375 163.277344 C 823.695312 162.910156 822.449219 162.628906 821.238281 162.53125 C 819.269531 162.945312 817.429688 163.765625 815.476562 164.308594 C 811.199219 165.808594 806.152344 166.746094 802.863281 170.230469 C 802.863281 170.230469 800.988281 172.027344 800.988281 172.027344 C 797.808594 173.707031 794.964844 175.972656 792.472656 178.582031 C 787.878906 182.375 783.109375 186.652344 777.648438 189.191406 C 772.023438 192.902344 766.246094 196.890625 759.699219 198.976562 C 750.136719 201.648438 739.78125 200.601562 730.148438 198.878906 C 723.601562 196.890625 718.203125 192.792969 712.109375 189.96875 C 707.703125 186.058594 702.558594 182.601562 697.492188 179.648438 C 693.789062 175.800781 688.886719 174.113281 684.457031 171.40625 C 684.417969 171.222656 684.285156 171.089844 684.09375 171.015625 C 684.058594 171 684.011719 171 683.96875 171.007812 C 683.09375 170.347656 681.910156 169.527344 681.015625 168.914062 C 678.839844 167.460938 675.960938 167.503906 673.539062 166.726562 C 659.941406 161.574219 650.011719 173.878906 639.25 180.242188 C 631.214844 187.160156 623.324219 194.941406 612.695312 197.785156 C 604.101562 201.667969 594.992188 203.699219 585.683594 201.191406 C 582.929688 200.457031 579.597656 200.070312 576.824219 199.265625 C 572.601562 197.179688 568.300781 194.726562 564.238281 192.304688 C 561.179688 190.429688 558.027344 188.351562 555.835938 185.453125 C 551.90625 180.632812 547.246094 176.289062 545.199219 170.210938 L 540.710938 172.027344 C 543.039062 178.71875 547.953125 183.519531 552.359375 188.8125 C 552.972656 189.695312 554.335938 190.933594 555.066406 191.753906 C 557.945312 194.203125 561.628906 196.378906 564.863281 198.335938 C 568.320312 200.097656 571.6875 202.238281 575.238281 203.835938 C 578.269531 204.710938 581.863281 205.179688 584.871094 205.957031 C 593.710938 208.269531 602.484375 206.96875 610.910156 203.753906 C 620.964844 200.339844 630.445312 195.382812 637.8125 187.738281 C 640.1875 185.535156 644.277344 182.527344 647.050781 181.027344 C 650.660156 178.050781 654.488281 175.386719 658.191406 172.796875 C 660.601562 172.125 662.515625 171.457031 664.574219 170.230469 C 668.84375 169.886719 672.78125 171.847656 677.007812 172.398438 C 678.054688 172.523438 679.003906 173.335938 679.839844 173.914062 C 680.292969 174.238281 681.25 174.917969 681.683594 175.269531 L 681.703125 175.242188 L 681.636719 175.351562 C 682.578125 175.847656 683.789062 176.605469 684.707031 177.148438 C 686.515625 178.328125 688.574219 178.988281 690.503906 180.027344 C 690.503906 180.027344 694.695312 183.59375 694.695312 183.59375 C 699.875 186.589844 705.011719 190.09375 709.535156 194.058594 C 713.691406 196.070312 717.636719 198.382812 721.652344 200.675781 C 731.882812 205.785156 748.070312 206.527344 759.222656 204.113281 C 764.691406 202.742188 770 199.980469 774.597656 196.890625 C 780.121094 193.234375 786.070312 190.445312 790.972656 186.085938 C 793.402344 184.179688 797.265625 180.777344 799.441406 178.628906 C 800.492188 177.949219 802.710938 176.605469 803.785156 175.972656 C 803.785156 175.972656 805.546875 174.257812 805.546875 174.257812 C 809.105469 170.421875 814.746094 169.996094 819.269531 168.117188 C 820 167.847656 820.757812 167.539062 821.507812 167.367188 C 822.4375 167.484375 823.414062 167.746094 824.289062 168.089844 C 824.324219 168.117188 824.351562 168.136719 824.390625 168.15625 L 824.390625 168.21875 C 826.527344 168.578125 828.640625 168.984375 830.84375 169.320312 C 832.007812 170.042969 833.136719 170.917969 834.210938 171.710938 C 835.484375 172.296875 837.054688 173.148438 838.3125 173.886719 C 840.785156 175.304688 844.476562 178.519531 846.4375 180.765625 C 849.777344 182.679688 853.363281 185.679688 856.242188 188.207031 C 863.734375 194.128906 873.207031 196.558594 881.820312 200.394531 C 888.574219 202.714844 895.914062 203.574219 903.019531 203.121094 C 907.8125 203.039062 912.589844 202.859375 917.390625 202.6875 C 922.097656 201.8125 926.953125 200.550781 931.394531 198.832031 C 935.730469 196.765625 940.074219 194.664062 944.433594 192.628906 C 947.132812 190.644531 950.03125 187.773438 952.894531 185.996094 C 963.691406 179.023438 967.066406 171.847656 974.144531 161.84375 L 969.894531 159.542969 C 961.261719 171.738281 960.449219 175.441406 947.152344 184.117188 Z M 947.140625 184.089844 " fill-opacity="1" fill-rule="nonzero"/><path fill="#ffbd59" d="M 941.90625 176.8125 C 940.515625 178.011719 938.828125 179.664062 937.382812 180.738281 C 935.195312 181.914062 932.742188 182.609375 930.621094 183.875 C 926.710938 186.101562 922.386719 187.449219 918.015625 188.46875 L 915.082031 189.066406 L 912.074219 189.136719 C 905.160156 189.019531 898.1875 190.03125 891.316406 188.722656 C 885.511719 187.464844 880.132812 184.621094 874.625 182.546875 C 866.832031 180.414062 861.6875 173.851562 854.960938 169.871094 C 854.960938 169.871094 850.878906 165.789062 850.878906 165.789062 C 846.410156 162.347656 841.300781 159.921875 836.648438 156.761719 C 833.382812 155.964844 829.933594 155.089844 826.601562 154.574219 C 826.601562 154.53125 826.601562 154.476562 826.601562 154.429688 C 826.601562 153.941406 825.808594 153.800781 825.714844 154.3125 C 824.101562 153.90625 822.367188 153.636719 820.714844 153.554688 C 818.980469 153.84375 817.085938 154.367188 815.449219 154.972656 C 808.425781 157.050781 800.851562 158.992188 795.796875 164.695312 C 792.429688 166.511719 789.457031 168.859375 786.804688 171.613281 C 782.425781 175.214844 777.820312 179.421875 772.609375 181.75 C 767.230469 185.238281 761.882812 189.226562 755.546875 190.78125 C 750.101562 192.089844 744.433594 191.511719 738.925781 191.113281 C 732.820312 191.015625 727.152344 188.359375 722.210938 184.957031 C 716.589844 182.917969 712.6875 178.328125 707.640625 175.332031 L 702.71875 172.324219 C 698.765625 168.289062 693.484375 166.421875 688.769531 163.511719 C 688.78125 163.371094 688.734375 163.214844 688.597656 163.117188 C 688.492188 163.035156 688.335938 163.007812 688.203125 163.042969 C 686.804688 162.007812 685.1875 160.976562 683.707031 160.082031 C 680.203125 159.042969 676.636719 158.132812 673.050781 157.5 C 657.6875 152.597656 645.496094 165.871094 633.542969 173.308594 C 623.792969 181.824219 619.3125 186.527344 606.546875 190.644531 C 599.496094 193.261719 594.667969 194.246094 587.179688 192.324219 C 584.898438 191.664062 582.089844 191.429688 579.777344 190.769531 C 576.285156 188.9375 572.707031 186.851562 569.296875 184.867188 C 566.742188 183.332031 564.078125 181.660156 562.308594 179.195312 C 561.378906 177.714844 559.554688 175.875 558.335938 174.636719 C 556.058594 172.507812 554.8125 169.625 553.539062 166.828125 L 549.054688 168.640625 C 550.984375 174.328125 555.203125 178.039062 558.832031 182.554688 C 560.835938 185.253906 563.761719 187.140625 566.585938 188.867188 C 570.359375 191.085938 574.308594 193.363281 578.207031 195.339844 C 580.789062 196.070312 583.851562 196.386719 586.394531 197.089844 C 594.59375 199.148438 600.34375 198.085938 608.089844 195.230469 C 617.136719 192.214844 625.570312 187.710938 632.179688 180.757812 C 634.625 178.5 638.597656 175.59375 641.460938 174.015625 C 649.125 167.992188 657.613281 161.03125 667.726562 161.265625 C 672.4375 162.167969 677.089844 163.214844 681.730469 164.488281 C 683.027344 165.285156 684.527344 166.292969 685.792969 167.222656 C 685.808594 167.449219 686.015625 167.628906 686.242188 167.640625 C 690.855469 170.511719 696.039062 172.28125 699.914062 176.269531 C 699.914062 176.269531 704.832031 179.277344 704.832031 179.277344 C 713.183594 185.289062 721.519531 191.519531 731.414062 194.925781 C 739.71875 196.332031 748.511719 197.246094 756.828125 195.457031 C 763.679688 193.769531 769.539062 189.535156 775.328125 185.761719 C 780.664062 183.324219 785.375 179.070312 789.863281 175.367188 C 792.90625 171.746094 797.257812 169.96875 800.570312 166.792969 C 804.832031 162.621094 811.109375 161.492188 816.523438 159.703125 C 817.90625 159.160156 819.53125 158.675781 821.003906 158.402344 C 822.421875 158.492188 823.910156 158.765625 825.28125 159.160156 C 825.375 159.269531 825.507812 159.332031 825.652344 159.332031 C 828.597656 159.777344 831.691406 160.523438 834.628906 161.167969 C 836.019531 161.996094 837.554688 163.070312 838.824219 164 C 843.582031 166.195312 848.46875 169.714844 851.988281 173.6875 C 856.296875 176.117188 859.871094 179.828125 863.960938 182.652344 C 870.136719 186.816406 877.59375 188.550781 884.277344 191.746094 C 885.792969 192.242188 888.871094 193.117188 890.425781 193.46875 C 896.707031 194.570312 903.136719 194.292969 909.464844 193.886719 C 912.570312 194.011719 916.003906 193.996094 919.054688 193.191406 C 923.75 192.097656 928.398438 190.652344 932.613281 188.277344 C 934.898438 186.941406 937.527344 186.15625 939.863281 184.894531 C 941.425781 183.753906 943.285156 182.003906 944.75 180.730469 C 957.550781 172.433594 957.984375 169.128906 966.273438 157.546875 L 962.019531 155.242188 C 954.09375 166.148438 954.148438 168.957031 941.921875 176.8125 Z M 941.90625 176.8125 " fill-opacity="1" fill-rule="nonzero"/><path fill="#ffbd59" d="M 936.660156 169.527344 C 935.46875 170.59375 934.042969 172.0625 932.796875 173.019531 C 930.890625 174.023438 928.742188 174.566406 926.917969 175.691406 C 923.613281 177.660156 919.8125 178.816406 916.09375 179.703125 C 916.09375 179.703125 913.5625 180.214844 913.5625 180.214844 L 910.964844 180.214844 C 904.96875 179.992188 898.9375 181.039062 892.96875 179.910156 C 887.128906 178.539062 881.8125 175.496094 876.148438 173.609375 C 871.933594 172.082031 868.539062 168.886719 865.242188 165.925781 C 860.007812 163.125 856.523438 158.179688 851.339844 155.1875 C 847.691406 153.148438 843.964844 150.855469 840.40625 148.625 C 836.386719 147.515625 832.144531 146.351562 827.992188 145.71875 C 827.875 145.65625 827.738281 145.628906 827.585938 145.59375 C 827.339844 145.527344 827.097656 145.464844 826.855469 145.402344 C 826.78125 145.382812 826.710938 145.394531 826.644531 145.402344 C 824.550781 144.949219 822.304688 144.660156 820.183594 144.617188 C 817.980469 144.933594 815.542969 145.527344 813.445312 146.242188 C 806.296875 148.480469 798.558594 150.214844 792.878906 155.316406 C 789.214844 158.738281 784.410156 160.839844 781.117188 164.6875 C 778.550781 166.773438 774.949219 169.824219 772.367188 171.773438 C 769.171875 173.445312 766.128906 175.269531 763.148438 177.199219 C 758.527344 180.503906 753.097656 183.125 747.304688 182.664062 C 743.375 182.347656 739.539062 182.511719 735.59375 181.777344 C 729.199219 179.097656 722.671875 175.890625 717.5 171.167969 C 714.726562 169.363281 710.828125 166.710938 707.910156 165.039062 C 703.742188 160.839844 698.132812 158.792969 693.148438 155.714844 C 693.175781 155.53125 693.113281 155.351562 692.941406 155.242188 C 692.824219 155.179688 692.679688 155.171875 692.554688 155.214844 C 691.417969 154.414062 689.925781 153.445312 688.789062 152.722656 C 684.445312 150.441406 679.328125 149.699219 674.542969 148.652344 C 665.105469 145.492188 656.691406 148.949219 648.015625 152.410156 C 640.945312 156.515625 634.789062 162.214844 627.828125 166.394531 C 619.1875 173.816406 615.007812 178.683594 603.695312 182.140625 C 601.527344 182.816406 599.234375 183.855469 596.996094 184.269531 C 594.703125 184.414062 592.066406 184.378906 589.835938 183.738281 C 587.578125 183.085938 585.015625 182.824219 582.710938 182.292969 C 581.304688 181.554688 579.824219 180.675781 578.542969 179.738281 C 577.195312 179.195312 575.570312 178.167969 574.324219 177.4375 C 572.273438 176.234375 570.089844 174.980469 568.746094 172.957031 C 568.746094 172.957031 567.34375 171.042969 567.34375 171.042969 C 564.863281 169.03125 562.992188 166.457031 561.847656 163.46875 L 557.359375 165.285156 C 558.695312 168.742188 560.816406 171.765625 563.636719 174.148438 C 563.636719 174.148438 565.269531 176.324219 565.269531 176.324219 C 566.847656 178.589844 569.285156 180.0625 571.605469 181.445312 C 574.738281 183.242188 577.964844 185.144531 581.125 186.871094 C 583.734375 187.492188 586.621094 187.855469 589.195312 188.539062 C 595.007812 190.085938 599.792969 188.785156 605.21875 186.734375 C 617.363281 182.898438 621.632812 178.15625 630.898438 170.132812 C 637.550781 166.167969 643.5 160.695312 650.171875 156.742188 C 657.875 153.761719 665.394531 150.429688 673.730469 153.429688 C 677.675781 154.125 681.566406 155.152344 685.394531 156.316406 C 686.957031 157.257812 688.691406 158.339844 690.179688 159.421875 C 690.179688 159.578125 690.269531 159.738281 690.394531 159.8125 C 690.496094 159.867188 690.59375 159.875 690.683594 159.855469 C 695.550781 162.882812 701.023438 164.824219 705.105469 168.96875 C 708.128906 170.671875 711.9375 173.292969 714.773438 175.152344 C 717.507812 177.84375 720.625 179.964844 724.199219 181.355469 C 729.480469 185.28125 735.746094 187.3125 742.292969 187.269531 C 746.789062 187.394531 751.375 187.882812 755.761719 186.464844 C 761.082031 184.722656 765.621094 181.371094 770.273438 178.347656 C 775.355469 176.117188 779.90625 171.929688 784.175781 168.425781 C 787.371094 164.667969 792.039062 162.664062 795.570312 159.332031 C 800.742188 154.558594 807.976562 153.039062 814.519531 150.953125 C 816.363281 150.304688 818.53125 149.734375 820.472656 149.445312 C 822.25 149.5 824.136719 149.761719 825.898438 150.160156 C 825.949219 150.242188 826.03125 150.304688 826.132812 150.324219 C 826.277344 150.351562 826.421875 150.367188 826.566406 150.394531 C 826.710938 150.414062 826.84375 150.441406 826.988281 150.457031 C 827.070312 150.46875 827.144531 150.484375 827.222656 150.496094 C 827.222656 150.496094 827.234375 150.496094 827.242188 150.496094 C 830.953125 151.0625 834.761719 152.074219 838.382812 153.011719 C 843.304688 156.289062 848.683594 158.910156 853.378906 162.511719 C 855.800781 165.210938 859.203125 168.027344 862.316406 169.769531 C 867.003906 174.511719 872.691406 177.867188 879.011719 179.882812 C 885.035156 182.3125 890.957031 185.253906 897.636719 185.28125 C 902.277344 185.433594 906.929688 184.867188 911.558594 185.039062 L 914.378906 184.992188 L 917.121094 184.433594 C 921.167969 183.476562 925.300781 182.222656 928.902344 180.109375 C 930.882812 178.90625 933.203125 178.285156 935.261719 177.191406 C 936.613281 176.171875 938.222656 174.601562 939.476562 173.464844 C 951.292969 165.90625 950.71875 163.632812 958.355469 153.273438 L 954.101562 150.972656 C 946.835938 160.617188 947.898438 162.429688 936.652344 169.535156 Z M 936.660156 169.527344 " fill-opacity="1" fill-rule="nonzero"/></svg>