<svg xmlns="http://www.w3.org/2000/svg" xmlns:xlink="http://www.w3.org/1999/xlink" width="200" zoomAndPan="magnify" viewBox="0 0 150 149.999998" height="200" preserveAspectRatio="xMidYMid meet" version="1.0"><defs><g/><clipPath id="a98876cedf"><path d="M 31 93 L 129 93 L 129 104.042969 L 31 104.042969 Z M 31 93 " clip-rule="nonzero"/></clipPath><clipPath id="d81771bfae"><path d="M 25.492188 86.042969 L 134.992188 86.042969 L 134.992188 99 L 25.492188 99 Z M 25.492188 86.042969 " clip-rule="nonzero"/></clipPath><clipPath id="ab9785f105"><rect x="0" width="71" y="0" height="24"/></clipPath><clipPath id="fb19c1d325"><path d="M 1 0.359375 L 15 0.359375 L 15 20 L 1 20 Z M 1 0.359375 " clip-rule="nonzero"/></clipPath><clipPath id="ff47d90961"><path d="M 28 0.359375 L 43 0.359375 L 43 20 L 28 20 Z M 28 0.359375 " clip-rule="nonzero"/></clipPath><clipPath id="d6621b03cb"><path d="M 43 0.359375 L 58 0.359375 L 58 20 L 43 20 Z M 43 0.359375 " clip-rule="nonzero"/></clipPath><clipPath id="87b2650aed"><path d="M 97 0.359375 L 111 0.359375 L 111 20 L 97 20 Z M 97 0.359375 " clip-rule="nonzero"/></clipPath><clipPath id="74c0fbb483"><rect x="0" width="113" y="0" height="25"/></clipPath></defs><rect x="-15" width="180" fill="#ffffff" y="-15" height="179.999997" fill-opacity="1"/><rect x="-15" width="180" fill="#b9ba65" y="-15" height="179.999997" fill-opacity="1"/><g clip-path="url(#a98876cedf)"><path fill="#ffbd59" d="M 62.46875 104.007812 C 63.160156 104.152344 63.917969 104.238281 64.617188 104.242188 C 65.636719 104.117188 66.671875 103.800781 67.644531 103.511719 C 69.660156 102.855469 71.71875 102.195312 73.210938 100.625 C 73.210938 100.625 73.902344 100.191406 73.902344 100.191406 L 74.574219 99.753906 L 75.152344 99.226562 C 75.476562 98.882812 76.417969 98.121094 76.789062 97.8125 C 78.167969 96.699219 79.75 95.863281 81.25 94.980469 C 81.507812 94.851562 81.820312 94.746094 82.113281 94.722656 C 82.238281 94.691406 82.398438 94.683594 82.523438 94.675781 C 83.367188 94.777344 84.148438 94.726562 85.011719 94.824219 C 86.066406 95.167969 86.929688 95.914062 87.980469 96.332031 C 88.917969 97.238281 90.191406 98.035156 91.328125 98.707031 C 92.074219 99.421875 92.953125 99.988281 93.921875 100.394531 C 94.320312 100.648438 94.792969 100.933594 95.222656 101.175781 C 95.257812 101.253906 95.351562 101.292969 95.425781 101.332031 C 95.433594 101.339844 95.445312 101.339844 95.453125 101.339844 C 96.03125 101.71875 96.632812 102.179688 97.296875 102.367188 C 99.730469 103.054688 102.265625 103.816406 104.828125 103.421875 C 106.136719 103.015625 107.410156 102.523438 108.660156 102.054688 C 110.15625 101.148438 111.542969 100.15625 112.871094 99.078125 C 114.011719 98.449219 115.273438 97.355469 116.191406 96.46875 C 117.238281 95.464844 118.554688 95.054688 119.851562 94.585938 C 120.410156 94.269531 121.101562 94.199219 121.722656 94.355469 C 122.234375 94.523438 122.757812 94.582031 123.285156 94.671875 C 123.917969 95.105469 124.585938 95.472656 125.253906 95.851562 C 125.449219 95.949219 125.652344 96.097656 125.777344 96.273438 C 125.917969 96.4375 126.023438 96.640625 126.152344 96.8125 C 126.625 97.140625 126.972656 97.578125 127.171875 98.109375 L 128.296875 97.65625 C 128.046875 97.003906 127.640625 96.457031 127.082031 96.03125 C 127.082031 96.03125 126.78125 95.609375 126.78125 95.609375 C 126.714844 95.480469 126.53125 95.316406 126.445312 95.203125 C 125.738281 94.660156 124.886719 94.304688 124.15625 93.808594 C 123.582031 93.34375 122.773438 93.445312 122.101562 93.214844 C 120.488281 92.6875 119.050781 93.695312 117.542969 94.144531 C 115.953125 94.824219 114.726562 96.273438 113.375 97.335938 C 112.046875 98.09375 110.855469 99.207031 109.554688 100.023438 C 108.144531 101.171875 106.328125 101.613281 104.621094 102.230469 C 102.285156 102.582031 99.988281 101.855469 97.765625 101.25 C 97.109375 101.070312 96.515625 100.589844 95.949219 100.222656 C 95.945312 100.21875 95.941406 100.210938 95.933594 100.207031 L 95.945312 100.191406 C 95.042969 99.652344 94.125 99.125 93.179688 98.683594 C 92.542969 98.09375 91.570312 97.386719 90.804688 96.96875 C 89.0625 95.738281 87.398438 94.402344 85.382812 93.667969 C 84.347656 93.527344 83.367188 93.539062 82.339844 93.480469 C 82.183594 93.496094 81.988281 93.507812 81.835938 93.542969 C 81.492188 93.585938 81.125 93.703125 80.8125 93.851562 C 79.1875 94.769531 77.515625 95.695312 76.035156 96.867188 C 75.347656 97.414062 74.46875 98.199219 73.832031 98.800781 C 73.511719 99.019531 72.84375 99.4375 72.515625 99.640625 C 71.328125 100.867188 69.777344 101.601562 68.140625 102.054688 C 67.007812 102.476562 65.765625 102.851562 64.554688 103.035156 C 63.921875 103.027344 63.238281 102.945312 62.621094 102.808594 L 62.621094 102.785156 C 62.59375 102.78125 62.5625 102.773438 62.53125 102.769531 C 62.511719 102.765625 62.492188 102.753906 62.476562 102.75 C 62.453125 102.738281 62.425781 102.742188 62.40625 102.753906 C 61.257812 102.582031 60.09375 102.257812 58.988281 101.9375 C 57.609375 101.058594 56.105469 100.289062 54.808594 99.304688 C 54.539062 99.046875 54.015625 98.519531 53.753906 98.257812 L 53.15625 97.863281 C 52.210938 97.285156 51.488281 96.414062 50.527344 95.871094 C 49.414062 95.40625 48.285156 95.054688 47.210938 94.511719 C 46.925781 94.414062 46.347656 94.242188 46.050781 94.171875 C 44.664062 93.90625 43.257812 94.171875 41.863281 94.101562 C 41.863281 94.101562 41.257812 94.097656 41.257812 94.097656 L 40.671875 94.214844 C 39.808594 94.421875 38.925781 94.691406 38.164062 95.152344 C 37.742188 95.421875 37.238281 95.535156 36.792969 95.769531 C 36.507812 95.996094 36.167969 96.34375 35.902344 96.597656 C 33.203125 98.285156 33.566406 98.644531 31.832031 100.902344 L 32.898438 101.480469 L 33.242188 101.054688 C 33.773438 100.546875 33.925781 99.777344 34.457031 99.253906 C 35.027344 98.542969 35.890625 98.113281 36.613281 97.578125 C 36.863281 97.34375 37.15625 97.023438 37.414062 96.8125 C 37.820312 96.601562 38.285156 96.503906 38.664062 96.257812 C 39.351562 95.832031 40.152344 95.589844 40.933594 95.402344 C 40.933594 95.402344 41.464844 95.292969 41.464844 95.292969 L 42.015625 95.304688 C 43.285156 95.390625 44.5625 95.121094 45.832031 95.363281 C 47.066406 95.660156 48.167969 96.347656 49.382812 96.703125 C 50.777344 97.203125 51.695312 98.523438 53.011719 99.210938 C 53.273438 99.476562 53.8125 100.007812 54.082031 100.269531 C 55.441406 101.300781 57.03125 102.125 58.488281 103.039062 C 59.691406 103.40625 60.917969 103.75 62.171875 103.941406 C 62.273438 103.96875 62.378906 103.992188 62.480469 104.007812 L 62.480469 104.011719 Z M 62.46875 104.007812 " fill-opacity="1" fill-rule="nonzero"/></g><g clip-path="url(#d81771bfae)"><path fill="#ffbd59" d="M 32.660156 92.101562 C 33.0625 91.765625 33.546875 91.304688 33.960938 91.007812 C 34.578125 90.671875 35.269531 90.457031 35.878906 90.105469 C 37.003906 89.480469 38.238281 89.097656 39.484375 88.808594 C 40.296875 88.597656 41.203125 88.585938 42.03125 88.613281 C 43.710938 88.503906 45.410156 88.441406 47.078125 88.730469 C 47.488281 88.828125 48.308594 89.054688 48.707031 89.1875 C 50.488281 90.019531 52.457031 90.5 54.09375 91.601562 C 55.09375 92.28125 56.097656 93.308594 57.160156 93.894531 C 57.667969 94.480469 58.59375 95.277344 59.25 95.660156 C 59.953125 96.035156 60.660156 96.449219 61.308594 96.910156 C 61.929688 97.03125 62.589844 97.175781 63.210938 97.273438 C 63.226562 97.296875 63.246094 97.3125 63.273438 97.316406 C 63.289062 97.324219 63.304688 97.324219 63.320312 97.316406 C 63.609375 97.410156 63.921875 97.480469 64.226562 97.503906 C 64.71875 97.402344 65.183594 97.195312 65.671875 97.058594 C 66.742188 96.683594 68.007812 96.449219 68.832031 95.574219 C 68.832031 95.574219 69.304688 95.125 69.304688 95.125 C 70.101562 94.703125 70.8125 94.136719 71.4375 93.480469 C 72.589844 92.53125 73.785156 91.457031 75.15625 90.820312 C 76.566406 89.890625 78.015625 88.890625 79.65625 88.367188 C 82.050781 87.699219 84.648438 87.960938 87.0625 88.390625 C 88.707031 88.890625 90.058594 89.917969 91.585938 90.625 C 92.691406 91.605469 93.980469 92.472656 95.25 93.214844 C 96.179688 94.179688 97.410156 94.601562 98.519531 95.28125 C 98.527344 95.324219 98.5625 95.359375 98.609375 95.378906 C 98.621094 95.382812 98.632812 95.382812 98.640625 95.378906 C 98.863281 95.546875 99.160156 95.75 99.382812 95.90625 C 99.929688 96.269531 100.648438 96.257812 101.257812 96.453125 C 104.664062 97.746094 107.15625 94.660156 109.855469 93.066406 C 111.867188 91.332031 113.847656 89.378906 116.511719 88.667969 C 118.667969 87.691406 120.949219 87.183594 123.285156 87.8125 C 123.972656 87.996094 124.808594 88.09375 125.503906 88.296875 C 126.5625 88.816406 127.640625 89.433594 128.660156 90.039062 C 129.425781 90.511719 130.21875 91.03125 130.765625 91.757812 C 131.75 92.96875 132.917969 94.054688 133.433594 95.578125 L 134.558594 95.125 C 133.976562 93.445312 132.742188 92.242188 131.640625 90.917969 C 131.484375 90.695312 131.144531 90.382812 130.960938 90.179688 C 130.238281 89.566406 129.3125 89.019531 128.503906 88.527344 C 127.636719 88.085938 126.792969 87.550781 125.902344 87.148438 C 125.140625 86.929688 124.242188 86.8125 123.488281 86.617188 C 121.273438 86.039062 119.070312 86.363281 116.960938 87.171875 C 114.4375 88.027344 112.0625 89.269531 110.214844 91.1875 C 109.617188 91.738281 108.59375 92.492188 107.898438 92.867188 C 106.992188 93.613281 106.03125 94.28125 105.105469 94.933594 C 104.5 95.097656 104.019531 95.265625 103.503906 95.574219 C 102.433594 95.660156 101.445312 95.167969 100.386719 95.03125 C 100.125 95 99.886719 94.796875 99.675781 94.652344 C 99.5625 94.570312 99.324219 94.398438 99.214844 94.3125 L 99.210938 94.320312 L 99.226562 94.292969 C 98.992188 94.167969 98.6875 93.976562 98.457031 93.839844 C 98.003906 93.542969 97.488281 93.378906 97.003906 93.117188 C 97.003906 93.117188 95.953125 92.226562 95.953125 92.226562 C 94.652344 91.472656 93.367188 90.59375 92.230469 89.601562 C 91.191406 89.097656 90.203125 88.515625 89.195312 87.941406 C 86.628906 86.660156 82.570312 86.476562 79.777344 87.078125 C 78.402344 87.421875 77.074219 88.117188 75.921875 88.890625 C 74.535156 89.808594 73.042969 90.507812 71.8125 91.601562 C 71.207031 92.078125 70.238281 92.929688 69.691406 93.46875 C 69.429688 93.640625 68.871094 93.976562 68.601562 94.136719 C 68.601562 94.136719 68.160156 94.566406 68.160156 94.566406 C 67.269531 95.527344 65.855469 95.632812 64.71875 96.105469 C 64.535156 96.171875 64.347656 96.25 64.160156 96.292969 C 63.925781 96.261719 63.679688 96.199219 63.460938 96.113281 C 63.453125 96.105469 63.445312 96.101562 63.4375 96.09375 L 63.4375 96.078125 C 62.902344 95.988281 62.371094 95.886719 61.820312 95.804688 C 61.527344 95.621094 61.242188 95.402344 60.972656 95.203125 C 60.65625 95.054688 60.261719 94.84375 59.945312 94.65625 C 59.328125 94.300781 58.402344 93.496094 57.910156 92.933594 C 57.070312 92.453125 56.171875 91.703125 55.449219 91.066406 C 53.570312 89.582031 51.199219 88.972656 49.039062 88.011719 C 47.34375 87.429688 45.503906 87.214844 43.722656 87.328125 C 42.519531 87.347656 41.324219 87.394531 40.121094 87.4375 C 38.941406 87.65625 37.722656 87.972656 36.609375 88.402344 C 35.523438 88.921875 34.433594 89.449219 33.339844 89.957031 C 32.664062 90.457031 31.9375 91.175781 31.21875 91.621094 C 28.511719 93.371094 27.664062 95.167969 25.890625 97.679688 L 26.957031 98.253906 C 29.121094 95.195312 29.324219 94.269531 32.660156 92.09375 Z M 32.660156 92.101562 " fill-opacity="1" fill-rule="nonzero"/></g><path fill="#ffbd59" d="M 33.972656 93.925781 C 34.324219 93.625 34.746094 93.210938 35.109375 92.941406 C 35.65625 92.644531 36.273438 92.472656 36.804688 92.15625 C 37.785156 91.59375 38.867188 91.257812 39.964844 91.003906 L 40.699219 90.851562 L 41.453125 90.835938 C 43.1875 90.863281 44.933594 90.609375 46.65625 90.9375 C 48.113281 91.253906 49.460938 91.964844 50.84375 92.488281 C 52.796875 93.023438 54.085938 94.667969 55.773438 95.664062 C 55.773438 95.664062 56.796875 96.6875 56.796875 96.6875 C 57.917969 97.550781 59.195312 98.160156 60.363281 98.953125 C 61.183594 99.152344 62.046875 99.371094 62.882812 99.5 C 62.882812 99.511719 62.882812 99.523438 62.882812 99.535156 C 62.882812 99.660156 63.082031 99.695312 63.105469 99.566406 C 63.507812 99.667969 63.945312 99.734375 64.359375 99.753906 C 64.792969 99.683594 65.269531 99.550781 65.679688 99.398438 C 67.4375 98.878906 69.339844 98.394531 70.605469 96.960938 C 71.449219 96.507812 72.195312 95.917969 72.859375 95.230469 C 73.957031 94.324219 75.113281 93.269531 76.417969 92.6875 C 77.769531 91.8125 79.109375 90.8125 80.695312 90.421875 C 82.0625 90.09375 83.484375 90.238281 84.863281 90.339844 C 86.394531 90.363281 87.816406 91.03125 89.054688 91.882812 C 90.464844 92.394531 91.441406 93.542969 92.707031 94.296875 L 93.941406 95.050781 C 94.933594 96.0625 96.257812 96.53125 97.4375 97.257812 C 97.4375 97.296875 97.445312 97.332031 97.480469 97.359375 C 97.507812 97.378906 97.546875 97.386719 97.582031 97.375 C 97.933594 97.636719 98.335938 97.894531 98.707031 98.121094 C 99.585938 98.378906 100.480469 98.609375 101.378906 98.765625 C 105.230469 99.996094 108.289062 96.667969 111.285156 94.804688 C 113.730469 92.667969 114.851562 91.488281 118.050781 90.457031 C 119.820312 89.800781 121.03125 89.554688 122.90625 90.035156 C 123.480469 90.199219 124.183594 90.261719 124.765625 90.425781 C 125.640625 90.882812 126.535156 91.40625 127.390625 91.90625 C 128.03125 92.289062 128.699219 92.710938 129.144531 93.328125 C 129.378906 93.699219 129.835938 94.160156 130.140625 94.46875 C 130.710938 95.003906 131.023438 95.726562 131.34375 96.429688 L 132.46875 95.972656 C 131.984375 94.546875 130.925781 93.617188 130.015625 92.484375 C 129.511719 91.808594 128.78125 91.335938 128.070312 90.902344 C 127.125 90.347656 126.136719 89.777344 125.15625 89.28125 C 124.511719 89.097656 123.742188 89.015625 123.105469 88.839844 C 121.050781 88.324219 119.609375 88.589844 117.664062 89.308594 C 115.398438 90.0625 113.285156 91.191406 111.625 92.933594 C 111.011719 93.5 110.015625 94.230469 109.300781 94.625 C 107.378906 96.136719 105.25 97.882812 102.714844 97.824219 C 101.53125 97.597656 100.367188 97.332031 99.203125 97.015625 C 98.878906 96.816406 98.503906 96.5625 98.183594 96.328125 C 98.179688 96.273438 98.128906 96.226562 98.070312 96.222656 C 96.914062 95.503906 95.617188 95.0625 94.644531 94.058594 C 94.644531 94.058594 93.410156 93.308594 93.410156 93.308594 C 91.316406 91.800781 89.226562 90.238281 86.746094 89.382812 C 84.664062 89.03125 82.460938 88.800781 80.375 89.25 C 78.65625 89.671875 77.1875 90.734375 75.738281 91.679688 C 74.398438 92.292969 73.21875 93.359375 72.09375 94.285156 C 71.328125 95.195312 70.238281 95.640625 69.410156 96.4375 C 68.339844 97.484375 66.765625 97.765625 65.410156 98.214844 C 65.0625 98.351562 64.65625 98.472656 64.285156 98.539062 C 63.929688 98.515625 63.558594 98.449219 63.210938 98.351562 C 63.191406 98.324219 63.15625 98.308594 63.121094 98.308594 C 62.382812 98.195312 61.605469 98.007812 60.871094 97.847656 C 60.519531 97.640625 60.136719 97.371094 59.816406 97.136719 C 58.625 96.585938 57.398438 95.703125 56.515625 94.707031 C 55.4375 94.097656 54.542969 93.167969 53.515625 92.460938 C 51.96875 91.417969 50.097656 90.980469 48.421875 90.179688 C 48.042969 90.054688 47.269531 89.835938 46.882812 89.75 C 45.304688 89.472656 43.695312 89.542969 42.105469 89.644531 C 41.328125 89.613281 40.46875 89.617188 39.703125 89.820312 C 38.527344 90.09375 37.359375 90.453125 36.304688 91.050781 C 35.730469 91.386719 35.070312 91.582031 34.484375 91.898438 C 34.09375 92.183594 33.628906 92.625 33.261719 92.941406 C 30.050781 95.023438 29.941406 95.851562 27.863281 98.753906 L 28.929688 99.332031 C 30.917969 96.597656 30.90625 95.894531 33.96875 93.925781 Z M 33.972656 93.925781 " fill-opacity="1" fill-rule="nonzero"/><path fill="#ffbd59" d="M 35.289062 95.75 C 35.589844 95.484375 35.945312 95.117188 36.257812 94.875 C 36.734375 94.625 37.273438 94.488281 37.730469 94.207031 C 38.558594 93.710938 39.511719 93.421875 40.445312 93.199219 C 40.445312 93.199219 41.078125 93.070312 41.078125 93.070312 L 41.730469 93.070312 C 43.234375 93.128906 44.746094 92.867188 46.242188 93.148438 C 47.707031 93.492188 49.039062 94.253906 50.460938 94.726562 C 51.515625 95.109375 52.367188 95.914062 53.195312 96.65625 C 54.507812 97.355469 55.378906 98.597656 56.679688 99.347656 C 57.59375 99.859375 58.53125 100.433594 59.421875 100.992188 C 60.429688 101.269531 61.492188 101.5625 62.535156 101.71875 C 62.5625 101.738281 62.597656 101.742188 62.636719 101.753906 C 62.695312 101.769531 62.757812 101.785156 62.820312 101.800781 C 62.835938 101.804688 62.855469 101.800781 62.871094 101.800781 C 63.394531 101.914062 63.960938 101.984375 64.492188 101.996094 C 65.042969 101.917969 65.65625 101.769531 66.179688 101.589844 C 67.972656 101.027344 69.914062 100.59375 71.335938 99.3125 C 72.253906 98.457031 73.460938 97.929688 74.285156 96.964844 C 74.929688 96.441406 75.832031 95.675781 76.480469 95.1875 C 77.28125 94.769531 78.042969 94.3125 78.789062 93.828125 C 79.949219 93 81.308594 92.34375 82.761719 92.457031 C 83.75 92.539062 84.710938 92.496094 85.699219 92.679688 C 87.300781 93.351562 88.9375 94.15625 90.234375 95.339844 C 90.929688 95.792969 91.910156 96.457031 92.640625 96.875 C 93.683594 97.929688 95.089844 98.441406 96.339844 99.214844 C 96.332031 99.261719 96.347656 99.304688 96.390625 99.332031 C 96.421875 99.347656 96.457031 99.351562 96.488281 99.339844 C 96.773438 99.539062 97.148438 99.78125 97.433594 99.964844 C 98.523438 100.535156 99.804688 100.722656 101.003906 100.984375 C 103.371094 101.777344 105.480469 100.910156 107.65625 100.042969 C 109.429688 99.011719 110.972656 97.585938 112.71875 96.535156 C 114.882812 94.675781 115.933594 93.457031 118.769531 92.589844 C 119.3125 92.417969 119.886719 92.160156 120.449219 92.054688 C 121.023438 92.019531 121.683594 92.027344 122.242188 92.1875 C 122.808594 92.351562 123.453125 92.417969 124.027344 92.550781 C 124.382812 92.738281 124.753906 92.957031 125.074219 93.191406 C 125.410156 93.328125 125.820312 93.585938 126.132812 93.769531 C 126.644531 94.070312 127.191406 94.382812 127.53125 94.890625 C 127.53125 94.890625 127.882812 95.371094 127.882812 95.371094 C 128.503906 95.875 128.972656 96.519531 129.257812 97.269531 L 130.382812 96.816406 C 130.050781 95.949219 129.519531 95.191406 128.8125 94.59375 C 128.8125 94.59375 128.402344 94.046875 128.402344 94.046875 C 128.003906 93.480469 127.394531 93.109375 126.8125 92.761719 C 126.027344 92.3125 125.21875 91.835938 124.425781 91.402344 C 123.773438 91.246094 123.046875 91.15625 122.402344 90.984375 C 120.945312 90.597656 119.746094 90.921875 118.386719 91.4375 C 115.339844 92.398438 114.269531 93.585938 111.949219 95.601562 C 110.28125 96.59375 108.789062 97.964844 107.113281 98.957031 C 105.183594 99.703125 103.296875 100.539062 101.210938 99.789062 C 100.21875 99.613281 99.246094 99.355469 98.285156 99.0625 C 97.894531 98.828125 97.457031 98.554688 97.085938 98.285156 C 97.085938 98.246094 97.0625 98.207031 97.03125 98.1875 C 97.007812 98.171875 96.980469 98.171875 96.957031 98.175781 C 95.738281 97.417969 94.367188 96.929688 93.34375 95.890625 C 92.585938 95.464844 91.628906 94.808594 90.917969 94.339844 C 90.234375 93.667969 89.453125 93.132812 88.554688 92.785156 C 87.230469 91.800781 85.660156 91.292969 84.019531 91.304688 C 82.890625 91.273438 81.742188 91.148438 80.640625 91.503906 C 79.308594 91.941406 78.171875 92.78125 77.003906 93.539062 C 75.730469 94.097656 74.589844 95.148438 73.519531 96.027344 C 72.71875 96.96875 71.546875 97.472656 70.664062 98.308594 C 69.367188 99.503906 67.550781 99.882812 65.910156 100.40625 C 65.449219 100.570312 64.90625 100.714844 64.417969 100.785156 C 63.972656 100.773438 63.5 100.707031 63.058594 100.605469 C 63.046875 100.585938 63.023438 100.570312 63 100.566406 C 62.964844 100.558594 62.925781 100.554688 62.890625 100.546875 C 62.855469 100.542969 62.820312 100.535156 62.785156 100.53125 C 62.765625 100.53125 62.746094 100.523438 62.726562 100.523438 C 62.726562 100.523438 62.722656 100.523438 62.722656 100.523438 C 61.792969 100.378906 60.835938 100.125 59.929688 99.890625 C 58.695312 99.070312 57.34375 98.414062 56.167969 97.511719 C 55.5625 96.832031 54.707031 96.128906 53.925781 95.691406 C 52.753906 94.5 51.328125 93.660156 49.742188 93.15625 C 48.230469 92.546875 46.746094 91.808594 45.074219 91.800781 C 43.910156 91.761719 42.742188 91.90625 41.582031 91.863281 L 40.875 91.875 L 40.1875 92.015625 C 39.171875 92.253906 38.136719 92.570312 37.234375 93.097656 C 36.738281 93.398438 36.15625 93.554688 35.640625 93.828125 C 35.300781 94.085938 34.898438 94.480469 34.582031 94.765625 C 31.621094 96.660156 31.765625 97.230469 29.851562 99.824219 L 30.914062 100.402344 C 32.738281 97.984375 32.472656 97.53125 35.292969 95.75 Z M 35.289062 95.75 " fill-opacity="1" fill-rule="nonzero"/><g transform="matrix(1, 0, 0, 1, 42, 43)"><g clip-path="url(#ab9785f105)"><g fill="#cb6ce6" fill-opacity="1"><g transform="translate(1.171651, 18.398979)"><g><path d="M 0.859375 -14.625 C 0.859375 -15.09375 0.8125 -15.476562 0.71875 -15.78125 C 0.632812 -16.09375 0.453125 -16.359375 0.171875 -16.578125 L 5.109375 -16.578125 C 5.335938 -16.578125 5.53125 -16.5 5.6875 -16.34375 C 5.84375 -16.1875 5.960938 -16 6.046875 -15.78125 C 6.128906 -15.5625 6.171875 -15.347656 6.171875 -15.140625 C 6.171875 -14.523438 6.0625 -13.953125 5.84375 -13.421875 C 5.625 -12.890625 5.34375 -12.382812 5 -11.90625 C 4.664062 -11.4375 4.304688 -10.976562 3.921875 -10.53125 C 3.535156 -10.082031 3.171875 -9.632812 2.828125 -9.1875 C 2.492188 -8.738281 2.21875 -8.273438 2 -7.796875 C 1.78125 -7.316406 1.671875 -6.804688 1.671875 -6.265625 C 1.671875 -5.734375 1.789062 -5.285156 2.03125 -4.921875 C 2.269531 -4.554688 2.578125 -4.257812 2.953125 -4.03125 C 3.335938 -3.8125 3.753906 -3.644531 4.203125 -3.53125 C 4.648438 -3.425781 5.082031 -3.375 5.5 -3.375 C 6.050781 -3.375 6.550781 -3.492188 7 -3.734375 C 7.457031 -3.972656 7.820312 -4.320312 8.09375 -4.78125 C 8.363281 -5.238281 8.5 -5.804688 8.5 -6.484375 L 8.5 -14.625 C 8.5 -15.09375 8.453125 -15.476562 8.359375 -15.78125 C 8.273438 -16.09375 8.09375 -16.359375 7.8125 -16.578125 L 13.515625 -16.578125 C 13.234375 -16.359375 13.046875 -16.09375 12.953125 -15.78125 C 12.859375 -15.476562 12.8125 -15.09375 12.8125 -14.625 L 12.8125 -6.125 C 12.8125 -5.101562 12.679688 -4.226562 12.421875 -3.5 C 12.171875 -2.769531 11.832031 -2.160156 11.40625 -1.671875 C 10.976562 -1.179688 10.5 -0.796875 9.96875 -0.515625 C 9.445312 -0.234375 8.910156 -0.0351562 8.359375 0.078125 C 7.816406 0.191406 7.300781 0.25 6.8125 0.25 C 6.320312 0.25 5.804688 0.191406 5.265625 0.078125 C 4.722656 -0.0351562 4.191406 -0.234375 3.671875 -0.515625 C 3.160156 -0.796875 2.691406 -1.179688 2.265625 -1.671875 C 1.835938 -2.160156 1.492188 -2.769531 1.234375 -3.5 C 0.984375 -4.226562 0.859375 -5.101562 0.859375 -6.125 Z M 0.859375 -14.625 "/></g></g></g><g fill="#cb6ce6" fill-opacity="1"><g transform="translate(14.852177, 18.398979)"><g><path d="M 0.171875 -16.578125 L 6.84375 -16.578125 C 8.195312 -16.578125 9.28125 -16.363281 10.09375 -15.9375 C 10.90625 -15.507812 11.492188 -14.929688 11.859375 -14.203125 C 12.234375 -13.484375 12.421875 -12.675781 12.421875 -11.78125 C 12.421875 -11.144531 12.332031 -10.515625 12.15625 -9.890625 C 11.988281 -9.265625 11.71875 -8.695312 11.34375 -8.1875 C 10.96875 -7.6875 10.484375 -7.285156 9.890625 -6.984375 C 9.304688 -6.679688 8.601562 -6.53125 7.78125 -6.53125 C 7.144531 -6.53125 6.597656 -6.617188 6.140625 -6.796875 C 5.679688 -6.984375 5.285156 -7.210938 4.953125 -7.484375 C 4.617188 -7.753906 4.328125 -8.023438 4.078125 -8.296875 C 3.835938 -8.578125 3.617188 -8.804688 3.421875 -8.984375 C 3.234375 -9.171875 3.039062 -9.265625 2.84375 -9.265625 C 2.625 -9.265625 2.472656 -9.207031 2.390625 -9.09375 C 2.316406 -8.988281 2.28125 -8.867188 2.28125 -8.734375 C 2.28125 -8.515625 2.394531 -8.289062 2.625 -8.0625 C 2.863281 -7.84375 3.175781 -7.628906 3.5625 -7.421875 C 3.957031 -7.210938 4.394531 -7.007812 4.875 -6.8125 C 5.351562 -6.625 5.828125 -6.4375 6.296875 -6.25 C 6.785156 -6.070312 7.300781 -5.875 7.84375 -5.65625 C 8.394531 -5.445312 8.929688 -5.207031 9.453125 -4.9375 C 9.972656 -4.675781 10.441406 -4.378906 10.859375 -4.046875 C 11.273438 -3.710938 11.609375 -3.332031 11.859375 -2.90625 C 12.117188 -2.488281 12.25 -2.023438 12.25 -1.515625 C 12.25 -0.984375 12.164062 -0.597656 12 -0.359375 C 11.84375 -0.117188 11.5625 0 11.15625 0 L 7.578125 0 C 7.460938 0 7.351562 -0.0234375 7.25 -0.078125 C 7.144531 -0.140625 7.09375 -0.238281 7.09375 -0.375 C 7.09375 -0.582031 7.117188 -0.757812 7.171875 -0.90625 C 7.222656 -1.050781 7.269531 -1.207031 7.3125 -1.375 C 7.351562 -1.550781 7.375 -1.78125 7.375 -2.0625 C 7.375 -2.425781 7.257812 -2.804688 7.03125 -3.203125 C 6.8125 -3.609375 6.515625 -4.003906 6.140625 -4.390625 C 5.773438 -4.785156 5.375 -5.15625 4.9375 -5.5 C 4.507812 -5.851562 4.085938 -6.164062 3.671875 -6.4375 C 3.265625 -6.707031 2.898438 -6.921875 2.578125 -7.078125 C 2.265625 -7.234375 2.039062 -7.3125 1.90625 -7.3125 C 1.789062 -7.3125 1.710938 -7.265625 1.671875 -7.171875 C 1.628906 -7.085938 1.609375 -7.023438 1.609375 -6.984375 C 1.609375 -6.703125 1.710938 -6.453125 1.921875 -6.234375 C 2.140625 -6.015625 2.421875 -5.796875 2.765625 -5.578125 C 3.109375 -5.367188 3.46875 -5.144531 3.84375 -4.90625 C 4.226562 -4.675781 4.585938 -4.410156 4.921875 -4.109375 C 5.265625 -3.804688 5.539062 -3.457031 5.75 -3.0625 C 5.96875 -2.664062 6.078125 -2.203125 6.078125 -1.671875 C 6.078125 -1.453125 6.035156 -1.210938 5.953125 -0.953125 C 5.867188 -0.691406 5.742188 -0.46875 5.578125 -0.28125 C 5.410156 -0.09375 5.1875 0 4.90625 0 L 0.1875 0 C 0.40625 -0.21875 0.554688 -0.476562 0.640625 -0.78125 C 0.722656 -1.09375 0.765625 -1.484375 0.765625 -1.953125 L 0.765625 -4.796875 L 0.75 -8.296875 L 0.75 -14.625 C 0.75 -15.09375 0.707031 -15.476562 0.625 -15.78125 C 0.539062 -16.09375 0.390625 -16.359375 0.171875 -16.578125 Z M 5.890625 -13.109375 C 5.460938 -13.109375 5 -13.09375 4.5 -13.0625 C 4.007812 -13.03125 3.539062 -12.960938 3.09375 -12.859375 C 2.65625 -12.753906 2.296875 -12.585938 2.015625 -12.359375 C 1.734375 -12.140625 1.59375 -11.84375 1.59375 -11.46875 C 1.59375 -11.09375 1.738281 -10.796875 2.03125 -10.578125 C 2.332031 -10.367188 2.726562 -10.207031 3.21875 -10.09375 C 3.71875 -9.988281 4.253906 -9.914062 4.828125 -9.875 C 5.410156 -9.84375 5.988281 -9.828125 6.5625 -9.828125 C 7.132812 -9.828125 7.710938 -9.84375 8.296875 -9.875 C 8.890625 -9.914062 9.429688 -9.988281 9.921875 -10.09375 C 10.410156 -10.207031 10.804688 -10.367188 11.109375 -10.578125 C 11.410156 -10.796875 11.5625 -11.09375 11.5625 -11.46875 C 11.5625 -11.769531 11.4375 -12.019531 11.1875 -12.21875 C 10.945312 -12.414062 10.625 -12.570312 10.21875 -12.6875 C 9.8125 -12.8125 9.359375 -12.898438 8.859375 -12.953125 C 8.367188 -13.015625 7.863281 -13.054688 7.34375 -13.078125 C 6.820312 -13.097656 6.335938 -13.109375 5.890625 -13.109375 Z M 5.890625 -13.109375 "/></g></g></g><g fill="#cb6ce6" fill-opacity="1"><g transform="translate(27.686998, 18.398979)"><g><path d="M 0.75 -14.625 C 0.75 -15.09375 0.707031 -15.476562 0.625 -15.78125 C 0.539062 -16.09375 0.390625 -16.359375 0.171875 -16.578125 L 7.296875 -16.578125 C 8.367188 -16.578125 9.25 -16.378906 9.9375 -15.984375 C 10.625 -15.597656 11.132812 -15.09375 11.46875 -14.46875 C 11.8125 -13.84375 11.984375 -13.175781 11.984375 -12.46875 C 11.984375 -12 11.882812 -11.519531 11.6875 -11.03125 C 11.5 -10.539062 11.210938 -10.085938 10.828125 -9.671875 C 10.441406 -9.253906 9.957031 -8.921875 9.375 -8.671875 C 8.800781 -8.421875 8.132812 -8.296875 7.375 -8.296875 C 6.769531 -8.296875 6.175781 -8.351562 5.59375 -8.46875 C 5.007812 -8.59375 4.476562 -8.710938 4 -8.828125 C 3.53125 -8.941406 3.140625 -9 2.828125 -9 C 2.722656 -9 2.632812 -8.976562 2.5625 -8.9375 C 2.488281 -8.894531 2.453125 -8.828125 2.453125 -8.734375 C 2.453125 -8.566406 2.613281 -8.425781 2.9375 -8.3125 C 3.269531 -8.195312 3.6875 -8.101562 4.1875 -8.03125 C 4.695312 -7.957031 5.222656 -7.894531 5.765625 -7.84375 C 6.316406 -7.800781 6.816406 -7.753906 7.265625 -7.703125 C 8.953125 -7.535156 10.1875 -7.097656 10.96875 -6.390625 C 11.757812 -5.679688 12.15625 -4.753906 12.15625 -3.609375 C 12.15625 -2.960938 11.972656 -2.363281 11.609375 -1.8125 C 11.253906 -1.269531 10.769531 -0.832031 10.15625 -0.5 C 9.550781 -0.164062 8.867188 0 8.109375 0 L 0.171875 0 C 0.390625 -0.21875 0.539062 -0.476562 0.625 -0.78125 C 0.707031 -1.09375 0.75 -1.484375 0.75 -1.953125 Z M 6.078125 -13.265625 C 5.515625 -13.265625 4.960938 -13.207031 4.421875 -13.09375 C 3.890625 -12.976562 3.414062 -12.8125 3 -12.59375 C 2.582031 -12.375 2.25 -12.125 2 -11.84375 C 1.75 -11.5625 1.625 -11.253906 1.625 -10.921875 C 1.625 -10.546875 1.796875 -10.253906 2.140625 -10.046875 C 2.484375 -9.847656 2.878906 -9.75 3.328125 -9.75 C 4.285156 -9.75 5.097656 -9.867188 5.765625 -10.109375 C 6.429688 -10.359375 6.941406 -10.65625 7.296875 -11 C 7.648438 -11.351562 7.828125 -11.695312 7.828125 -12.03125 C 7.828125 -12.363281 7.675781 -12.648438 7.375 -12.890625 C 7.070312 -13.140625 6.640625 -13.265625 6.078125 -13.265625 Z M 1.84375 -7.703125 C 1.757812 -7.703125 1.703125 -7.679688 1.671875 -7.640625 C 1.648438 -7.609375 1.640625 -7.570312 1.640625 -7.53125 C 1.640625 -7.425781 1.707031 -7.28125 1.84375 -7.09375 C 1.976562 -6.90625 2.140625 -6.707031 2.328125 -6.5 C 2.515625 -6.289062 2.675781 -6.097656 2.8125 -5.921875 C 3.125 -5.566406 3.46875 -5.179688 3.84375 -4.765625 C 4.226562 -4.347656 4.65625 -3.992188 5.125 -3.703125 C 5.59375 -3.410156 6.09375 -3.265625 6.625 -3.265625 C 6.957031 -3.265625 7.21875 -3.328125 7.40625 -3.453125 C 7.601562 -3.578125 7.742188 -3.726562 7.828125 -3.90625 C 7.910156 -4.09375 7.953125 -4.269531 7.953125 -4.4375 C 7.953125 -4.851562 7.710938 -5.269531 7.234375 -5.6875 C 6.765625 -6.101562 5.914062 -6.5 4.6875 -6.875 C 3.800781 -7.15625 3.15625 -7.363281 2.75 -7.5 C 2.351562 -7.632812 2.050781 -7.703125 1.84375 -7.703125 Z M 1.84375 -7.703125 "/></g></g></g><g fill="#cb6ce6" fill-opacity="1"><g transform="translate(40.173586, 18.398979)"><g><path d="M 0 0 C 0.34375 -0.289062 0.617188 -0.726562 0.828125 -1.3125 C 1.035156 -1.894531 1.242188 -2.53125 1.453125 -3.21875 C 1.785156 -4.34375 2.078125 -5.367188 2.328125 -6.296875 C 2.578125 -7.222656 2.796875 -8.125 2.984375 -9 C 3.179688 -9.882812 3.367188 -10.800781 3.546875 -11.75 C 3.734375 -12.695312 3.929688 -13.75 4.140625 -14.90625 C 4.203125 -15.226562 4.203125 -15.539062 4.140625 -15.84375 C 4.085938 -16.15625 3.96875 -16.398438 3.78125 -16.578125 L 11.125 -16.578125 C 10.945312 -16.398438 10.828125 -16.15625 10.765625 -15.84375 C 10.703125 -15.539062 10.703125 -15.226562 10.765625 -14.90625 C 10.972656 -13.75 11.164062 -12.695312 11.34375 -11.75 C 11.53125 -10.800781 11.71875 -9.882812 11.90625 -9 C 12.101562 -8.125 12.328125 -7.222656 12.578125 -6.296875 C 12.828125 -5.367188 13.113281 -4.34375 13.4375 -3.21875 C 13.65625 -2.53125 13.867188 -1.894531 14.078125 -1.3125 C 14.285156 -0.726562 14.5625 -0.289062 14.90625 0 L 8.0625 0 C 8.25 -0.21875 8.394531 -0.488281 8.5 -0.8125 C 8.601562 -1.132812 8.65625 -1.46875 8.65625 -1.8125 C 8.65625 -2.082031 8.601562 -2.59375 8.5 -3.34375 C 8.40625 -4.09375 8.273438 -4.941406 8.109375 -5.890625 L 5.671875 -5.890625 C 5.953125 -5.191406 6.210938 -4.5 6.453125 -3.8125 C 6.691406 -3.125 6.8125 -2.4375 6.8125 -1.75 C 6.8125 -1.5 6.773438 -1.234375 6.703125 -0.953125 C 6.640625 -0.679688 6.519531 -0.453125 6.34375 -0.265625 C 6.175781 -0.0859375 5.929688 0 5.609375 0 Z M 5.359375 -6.625 L 7.953125 -6.625 C 7.796875 -7.425781 7.625 -8.222656 7.4375 -9.015625 C 7.25 -9.804688 7.046875 -10.523438 6.828125 -11.171875 C 6.617188 -11.828125 6.398438 -12.347656 6.171875 -12.734375 C 5.941406 -13.128906 5.710938 -13.328125 5.484375 -13.328125 C 5.203125 -13.328125 4.976562 -13.203125 4.8125 -12.953125 C 4.644531 -12.710938 4.523438 -12.394531 4.453125 -12 C 4.378906 -11.613281 4.34375 -11.203125 4.34375 -10.765625 C 4.34375 -10.035156 4.441406 -9.328125 4.640625 -8.640625 C 4.847656 -7.953125 5.085938 -7.28125 5.359375 -6.625 Z M 5.359375 -6.625 "/></g></g></g><g fill="#cb6ce6" fill-opacity="1"><g transform="translate(55.081216, 18.398979)"><g><path d="M 0.171875 0 C 0.390625 -0.21875 0.539062 -0.476562 0.625 -0.78125 C 0.707031 -1.09375 0.75 -1.484375 0.75 -1.953125 L 0.75 -14.625 C 0.75 -15.09375 0.707031 -15.476562 0.625 -15.78125 C 0.539062 -16.09375 0.390625 -16.359375 0.171875 -16.578125 L 5.109375 -16.578125 C 5.390625 -16.578125 5.632812 -16.523438 5.84375 -16.421875 C 6.0625 -16.316406 6.269531 -16.09375 6.46875 -15.75 C 6.664062 -15.414062 6.890625 -14.921875 7.140625 -14.265625 C 7.390625 -13.609375 7.703125 -12.722656 8.078125 -11.609375 L 9.625 -6.96875 C 9.78125 -6.507812 9.929688 -6.054688 10.078125 -5.609375 C 10.234375 -5.160156 10.382812 -4.75 10.53125 -4.375 C 10.6875 -4.007812 10.835938 -3.71875 10.984375 -3.5 C 11.140625 -3.28125 11.289062 -3.171875 11.4375 -3.171875 C 11.625 -3.171875 11.757812 -3.265625 11.84375 -3.453125 C 11.925781 -3.648438 11.976562 -3.890625 12 -4.171875 C 12.03125 -4.453125 12.046875 -4.71875 12.046875 -4.96875 C 12.046875 -6.03125 11.921875 -6.988281 11.671875 -7.84375 C 11.421875 -8.695312 11.109375 -9.46875 10.734375 -10.15625 C 10.359375 -10.84375 9.984375 -11.46875 9.609375 -12.03125 C 9.234375 -12.601562 8.921875 -13.140625 8.671875 -13.640625 C 8.421875 -14.148438 8.296875 -14.644531 8.296875 -15.125 C 8.296875 -15.625 8.476562 -15.988281 8.84375 -16.21875 C 9.21875 -16.457031 9.644531 -16.578125 10.125 -16.578125 L 13.59375 -16.578125 C 13.375 -16.359375 13.222656 -16.09375 13.140625 -15.78125 C 13.054688 -15.476562 13.015625 -15.09375 13.015625 -14.625 L 13.015625 -1.953125 C 13.015625 -1.484375 13.054688 -1.09375 13.140625 -0.78125 C 13.222656 -0.476562 13.375 -0.21875 13.59375 0 L 9.25 0 C 8.769531 0 8.359375 -0.117188 8.015625 -0.359375 C 7.679688 -0.597656 7.394531 -0.921875 7.15625 -1.328125 C 6.914062 -1.734375 6.703125 -2.191406 6.515625 -2.703125 C 6.328125 -3.222656 6.140625 -3.765625 5.953125 -4.328125 C 5.835938 -4.660156 5.695312 -5.066406 5.53125 -5.546875 C 5.363281 -6.023438 5.1875 -6.523438 5 -7.046875 C 4.820312 -7.578125 4.65625 -8.066406 4.5 -8.515625 C 4.34375 -8.972656 4.21875 -9.335938 4.125 -9.609375 C 3.96875 -10.066406 3.816406 -10.519531 3.671875 -10.96875 C 3.523438 -11.414062 3.375 -11.820312 3.21875 -12.1875 C 3.070312 -12.5625 2.921875 -12.859375 2.765625 -13.078125 C 2.617188 -13.296875 2.472656 -13.40625 2.328125 -13.40625 C 2.148438 -13.40625 2.015625 -13.304688 1.921875 -13.109375 C 1.835938 -12.921875 1.78125 -12.6875 1.75 -12.40625 C 1.71875 -12.125 1.703125 -11.859375 1.703125 -11.609375 C 1.703125 -10.546875 1.828125 -9.585938 2.078125 -8.734375 C 2.335938 -7.878906 2.65625 -7.109375 3.03125 -6.421875 C 3.40625 -5.734375 3.773438 -5.101562 4.140625 -4.53125 C 4.515625 -3.96875 4.828125 -3.429688 5.078125 -2.921875 C 5.335938 -2.421875 5.46875 -1.929688 5.46875 -1.453125 C 5.46875 -0.953125 5.28125 -0.582031 4.90625 -0.34375 C 4.539062 -0.113281 4.113281 0 3.625 0 Z M 0.171875 0 "/></g></g></g></g></g><g transform="matrix(1, 0, 0, 1, 21, 63)"><g clip-path="url(#74c0fbb483)"><g clip-path="url(#fb19c1d325)"><g fill="#cb6ce6" fill-opacity="1"><g transform="translate(0.872939, 18.936651)"><g><path d="M 0.4375 -8.84375 C 0.4375 -9.71875 0.519531 -10.585938 0.6875 -11.453125 C 0.851562 -12.328125 1.109375 -13.15625 1.453125 -13.9375 C 1.796875 -14.71875 2.21875 -15.40625 2.71875 -16 C 3.226562 -16.601562 3.828125 -17.078125 4.515625 -17.421875 C 5.203125 -17.773438 5.984375 -17.953125 6.859375 -17.953125 C 7.316406 -17.953125 7.753906 -17.890625 8.171875 -17.765625 C 8.597656 -17.648438 9.03125 -17.535156 9.46875 -17.421875 C 9.914062 -17.304688 10.40625 -17.25 10.9375 -17.25 C 11.34375 -17.25 11.664062 -17.304688 11.90625 -17.421875 C 12.15625 -17.535156 12.363281 -17.648438 12.53125 -17.765625 C 12.695312 -17.890625 12.867188 -17.953125 13.046875 -17.953125 C 13.285156 -17.953125 13.425781 -17.816406 13.46875 -17.546875 C 13.507812 -17.285156 13.484375 -16.957031 13.390625 -16.5625 C 13.304688 -16.164062 13.175781 -15.773438 13 -15.390625 C 12.882812 -15.117188 12.710938 -14.796875 12.484375 -14.421875 C 12.253906 -14.046875 11.972656 -13.722656 11.640625 -13.453125 C 11.316406 -13.179688 10.945312 -13.046875 10.53125 -13.046875 C 9.90625 -13.046875 9.347656 -13.117188 8.859375 -13.265625 C 8.367188 -13.410156 7.914062 -13.585938 7.5 -13.796875 C 7.09375 -14.003906 6.703125 -14.210938 6.328125 -14.421875 C 5.960938 -14.640625 5.582031 -14.816406 5.1875 -14.953125 C 4.800781 -15.097656 4.378906 -15.171875 3.921875 -15.171875 C 3.628906 -15.171875 3.390625 -15.09375 3.203125 -14.9375 C 3.015625 -14.78125 2.863281 -14.582031 2.75 -14.34375 C 2.644531 -14.101562 2.570312 -13.863281 2.53125 -13.625 C 2.488281 -13.394531 2.46875 -13.195312 2.46875 -13.03125 C 2.46875 -12.300781 2.5625 -11.519531 2.75 -10.6875 C 2.9375 -9.851562 3.203125 -9.035156 3.546875 -8.234375 C 3.898438 -7.441406 4.335938 -6.710938 4.859375 -6.046875 C 5.390625 -5.390625 6 -4.863281 6.6875 -4.46875 C 7.382812 -4.070312 8.15625 -3.875 9 -3.875 C 9.625 -3.875 10.144531 -3.984375 10.5625 -4.203125 C 10.988281 -4.429688 11.320312 -4.722656 11.5625 -5.078125 C 11.8125 -5.429688 11.988281 -5.8125 12.09375 -6.21875 C 12.195312 -6.625 12.25 -7.007812 12.25 -7.375 C 12.25 -7.894531 12.207031 -8.296875 12.125 -8.578125 C 12.050781 -8.859375 11.882812 -9 11.625 -9 C 11.46875 -9 11.316406 -8.914062 11.171875 -8.75 C 11.035156 -8.582031 10.882812 -8.378906 10.71875 -8.140625 C 10.5625 -7.910156 10.378906 -7.675781 10.171875 -7.4375 C 9.960938 -7.195312 9.703125 -6.992188 9.390625 -6.828125 C 9.078125 -6.660156 8.695312 -6.578125 8.25 -6.578125 C 7.570312 -6.578125 7.007812 -6.707031 6.5625 -6.96875 C 6.125 -7.238281 5.789062 -7.59375 5.5625 -8.03125 C 5.34375 -8.46875 5.234375 -8.953125 5.234375 -9.484375 C 5.234375 -9.753906 5.3125 -10.015625 5.46875 -10.265625 C 5.625 -10.515625 5.816406 -10.640625 6.046875 -10.640625 C 6.140625 -10.640625 6.25 -10.59375 6.375 -10.5 C 6.507812 -10.414062 6.671875 -10.328125 6.859375 -10.234375 C 7.054688 -10.140625 7.300781 -10.09375 7.59375 -10.09375 C 7.882812 -10.09375 8.148438 -10.132812 8.390625 -10.21875 C 8.628906 -10.300781 8.867188 -10.390625 9.109375 -10.484375 C 9.347656 -10.585938 9.613281 -10.679688 9.90625 -10.765625 C 10.207031 -10.847656 10.570312 -10.890625 11 -10.890625 C 11.332031 -10.890625 11.675781 -10.816406 12.03125 -10.671875 C 12.382812 -10.535156 12.679688 -10.3125 12.921875 -10 C 13.171875 -9.6875 13.296875 -9.269531 13.296875 -8.75 L 13.296875 -4.265625 C 13.148438 -3.734375 12.914062 -3.203125 12.59375 -2.671875 C 12.269531 -2.140625 11.867188 -1.648438 11.390625 -1.203125 C 10.910156 -0.753906 10.351562 -0.394531 9.71875 -0.125 C 9.082031 0.132812 8.378906 0.265625 7.609375 0.265625 C 6.617188 0.265625 5.6875 0.078125 4.8125 -0.296875 C 3.945312 -0.671875 3.1875 -1.234375 2.53125 -1.984375 C 1.882812 -2.742188 1.375 -3.695312 1 -4.84375 C 0.625 -5.988281 0.4375 -7.320312 0.4375 -8.84375 Z M 0.4375 -8.84375 "/></g></g></g></g><g fill="#cb6ce6" fill-opacity="1"><g transform="translate(14.702647, 18.936651)"><g><path d="M 0.171875 -17.6875 L 7.3125 -17.6875 C 8.75 -17.6875 9.898438 -17.457031 10.765625 -17 C 11.628906 -16.550781 12.257812 -15.941406 12.65625 -15.171875 C 13.050781 -14.398438 13.25 -13.535156 13.25 -12.578125 C 13.25 -11.890625 13.15625 -11.210938 12.96875 -10.546875 C 12.789062 -9.878906 12.5 -9.273438 12.09375 -8.734375 C 11.695312 -8.203125 11.1875 -7.773438 10.5625 -7.453125 C 9.9375 -7.128906 9.179688 -6.96875 8.296875 -6.96875 C 7.617188 -6.96875 7.035156 -7.0625 6.546875 -7.25 C 6.054688 -7.445312 5.632812 -7.691406 5.28125 -7.984375 C 4.9375 -8.273438 4.628906 -8.566406 4.359375 -8.859375 C 4.097656 -9.148438 3.863281 -9.394531 3.65625 -9.59375 C 3.445312 -9.789062 3.242188 -9.890625 3.046875 -9.890625 C 2.804688 -9.890625 2.644531 -9.828125 2.5625 -9.703125 C 2.476562 -9.585938 2.4375 -9.460938 2.4375 -9.328125 C 2.4375 -9.085938 2.5625 -8.847656 2.8125 -8.609375 C 3.0625 -8.378906 3.394531 -8.148438 3.8125 -7.921875 C 4.226562 -7.703125 4.6875 -7.488281 5.1875 -7.28125 C 5.695312 -7.070312 6.207031 -6.867188 6.71875 -6.671875 C 7.238281 -6.484375 7.789062 -6.273438 8.375 -6.046875 C 8.957031 -5.816406 9.523438 -5.554688 10.078125 -5.265625 C 10.628906 -4.984375 11.128906 -4.664062 11.578125 -4.3125 C 12.023438 -3.957031 12.382812 -3.554688 12.65625 -3.109375 C 12.9375 -2.660156 13.078125 -2.160156 13.078125 -1.609375 C 13.078125 -1.046875 12.988281 -0.632812 12.8125 -0.375 C 12.644531 -0.125 12.34375 0 11.90625 0 L 8.078125 0 C 7.960938 0 7.847656 -0.0234375 7.734375 -0.078125 C 7.617188 -0.140625 7.5625 -0.25 7.5625 -0.40625 C 7.5625 -0.613281 7.585938 -0.796875 7.640625 -0.953125 C 7.703125 -1.117188 7.753906 -1.289062 7.796875 -1.46875 C 7.847656 -1.65625 7.875 -1.894531 7.875 -2.1875 C 7.875 -2.582031 7.75 -2.992188 7.5 -3.421875 C 7.257812 -3.847656 6.941406 -4.269531 6.546875 -4.6875 C 6.148438 -5.113281 5.722656 -5.507812 5.265625 -5.875 C 4.804688 -6.25 4.359375 -6.582031 3.921875 -6.875 C 3.484375 -7.164062 3.09375 -7.390625 2.75 -7.546875 C 2.414062 -7.710938 2.175781 -7.796875 2.03125 -7.796875 C 1.914062 -7.796875 1.832031 -7.75 1.78125 -7.65625 C 1.738281 -7.5625 1.71875 -7.492188 1.71875 -7.453125 C 1.71875 -7.148438 1.832031 -6.878906 2.0625 -6.640625 C 2.289062 -6.410156 2.585938 -6.179688 2.953125 -5.953125 C 3.316406 -5.734375 3.703125 -5.492188 4.109375 -5.234375 C 4.515625 -4.984375 4.894531 -4.695312 5.25 -4.375 C 5.613281 -4.0625 5.910156 -3.691406 6.140625 -3.265625 C 6.367188 -2.847656 6.484375 -2.351562 6.484375 -1.78125 C 6.484375 -1.550781 6.4375 -1.296875 6.34375 -1.015625 C 6.257812 -0.734375 6.125 -0.492188 5.9375 -0.296875 C 5.757812 -0.0976562 5.523438 0 5.234375 0 L 0.1875 0 C 0.425781 -0.238281 0.585938 -0.519531 0.671875 -0.84375 C 0.765625 -1.164062 0.8125 -1.582031 0.8125 -2.09375 L 0.8125 -5.109375 L 0.796875 -8.84375 L 0.796875 -15.59375 C 0.796875 -16.101562 0.75 -16.519531 0.65625 -16.84375 C 0.570312 -17.164062 0.410156 -17.445312 0.171875 -17.6875 Z M 6.28125 -13.984375 C 5.832031 -13.984375 5.34375 -13.96875 4.8125 -13.9375 C 4.28125 -13.90625 3.773438 -13.832031 3.296875 -13.71875 C 2.828125 -13.601562 2.441406 -13.425781 2.140625 -13.1875 C 1.847656 -12.957031 1.703125 -12.640625 1.703125 -12.234375 C 1.703125 -11.835938 1.859375 -11.523438 2.171875 -11.296875 C 2.492188 -11.066406 2.914062 -10.890625 3.4375 -10.765625 C 3.96875 -10.648438 4.539062 -10.570312 5.15625 -10.53125 C 5.769531 -10.5 6.382812 -10.484375 7 -10.484375 C 7.613281 -10.484375 8.234375 -10.5 8.859375 -10.53125 C 9.484375 -10.570312 10.054688 -10.648438 10.578125 -10.765625 C 11.109375 -10.890625 11.53125 -11.066406 11.84375 -11.296875 C 12.164062 -11.523438 12.328125 -11.835938 12.328125 -12.234375 C 12.328125 -12.554688 12.195312 -12.820312 11.9375 -13.03125 C 11.675781 -13.25 11.332031 -13.421875 10.90625 -13.546875 C 10.476562 -13.679688 10 -13.773438 9.46875 -13.828125 C 8.9375 -13.890625 8.390625 -13.929688 7.828125 -13.953125 C 7.273438 -13.972656 6.757812 -13.984375 6.28125 -13.984375 Z M 6.28125 -13.984375 "/></g></g></g><g clip-path="url(#ff47d90961)"><g fill="#cb6ce6" fill-opacity="1"><g transform="translate(28.390875, 18.936651)"><g><path d="M 0.4375 -8.84375 C 0.4375 -10.207031 0.601562 -11.445312 0.9375 -12.5625 C 1.269531 -13.675781 1.738281 -14.632812 2.34375 -15.4375 C 2.957031 -16.25 3.691406 -16.867188 4.546875 -17.296875 C 5.410156 -17.734375 6.363281 -17.953125 7.40625 -17.953125 C 8.445312 -17.953125 9.394531 -17.734375 10.25 -17.296875 C 11.101562 -16.867188 11.835938 -16.25 12.453125 -15.4375 C 13.066406 -14.632812 13.535156 -13.675781 13.859375 -12.5625 C 14.191406 -11.445312 14.359375 -10.207031 14.359375 -8.84375 C 14.359375 -7.476562 14.191406 -6.238281 13.859375 -5.125 C 13.535156 -4.007812 13.066406 -3.046875 12.453125 -2.234375 C 11.835938 -1.429688 11.101562 -0.8125 10.25 -0.375 C 9.394531 0.0507812 8.445312 0.265625 7.40625 0.265625 C 6.363281 0.265625 5.410156 0.0507812 4.546875 -0.375 C 3.691406 -0.8125 2.957031 -1.429688 2.34375 -2.234375 C 1.738281 -3.046875 1.269531 -4.007812 0.9375 -5.125 C 0.601562 -6.238281 0.4375 -7.476562 0.4375 -8.84375 Z M 5.984375 -16.75 C 5.566406 -16.75 5.238281 -16.523438 5 -16.078125 C 4.769531 -15.640625 4.613281 -15.039062 4.53125 -14.28125 C 4.445312 -13.53125 4.429688 -12.6875 4.484375 -11.75 C 4.535156 -10.8125 4.644531 -9.84375 4.8125 -8.84375 C 4.976562 -7.84375 5.1875 -6.875 5.4375 -5.9375 C 5.6875 -5 5.972656 -4.148438 6.296875 -3.390625 C 6.628906 -2.640625 6.976562 -2.039062 7.34375 -1.59375 C 7.71875 -1.15625 8.097656 -0.9375 8.484375 -0.9375 C 8.984375 -0.9375 9.378906 -1.15625 9.671875 -1.59375 C 9.972656 -2.039062 10.179688 -2.640625 10.296875 -3.390625 C 10.410156 -4.148438 10.445312 -5 10.40625 -5.9375 C 10.375 -6.875 10.273438 -7.84375 10.109375 -8.84375 C 9.953125 -9.84375 9.734375 -10.8125 9.453125 -11.75 C 9.171875 -12.6875 8.847656 -13.53125 8.484375 -14.28125 C 8.128906 -15.039062 7.738281 -15.640625 7.3125 -16.078125 C 6.894531 -16.523438 6.453125 -16.75 5.984375 -16.75 Z M 5.984375 -16.75 "/></g></g></g></g><g clip-path="url(#d6621b03cb)"><g fill="#cb6ce6" fill-opacity="1"><g transform="translate(43.193267, 18.936651)"><g><path d="M 0.4375 -8.84375 C 0.4375 -10.207031 0.601562 -11.445312 0.9375 -12.5625 C 1.269531 -13.675781 1.738281 -14.632812 2.34375 -15.4375 C 2.957031 -16.25 3.691406 -16.867188 4.546875 -17.296875 C 5.410156 -17.734375 6.363281 -17.953125 7.40625 -17.953125 C 8.445312 -17.953125 9.394531 -17.734375 10.25 -17.296875 C 11.101562 -16.867188 11.835938 -16.25 12.453125 -15.4375 C 13.066406 -14.632812 13.535156 -13.675781 13.859375 -12.5625 C 14.191406 -11.445312 14.359375 -10.207031 14.359375 -8.84375 C 14.359375 -7.476562 14.191406 -6.238281 13.859375 -5.125 C 13.535156 -4.007812 13.066406 -3.046875 12.453125 -2.234375 C 11.835938 -1.429688 11.101562 -0.8125 10.25 -0.375 C 9.394531 0.0507812 8.445312 0.265625 7.40625 0.265625 C 6.363281 0.265625 5.410156 0.0507812 4.546875 -0.375 C 3.691406 -0.8125 2.957031 -1.429688 2.34375 -2.234375 C 1.738281 -3.046875 1.269531 -4.007812 0.9375 -5.125 C 0.601562 -6.238281 0.4375 -7.476562 0.4375 -8.84375 Z M 5.984375 -16.75 C 5.566406 -16.75 5.238281 -16.523438 5 -16.078125 C 4.769531 -15.640625 4.613281 -15.039062 4.53125 -14.28125 C 4.445312 -13.53125 4.429688 -12.6875 4.484375 -11.75 C 4.535156 -10.8125 4.644531 -9.84375 4.8125 -8.84375 C 4.976562 -7.84375 5.1875 -6.875 5.4375 -5.9375 C 5.6875 -5 5.972656 -4.148438 6.296875 -3.390625 C 6.628906 -2.640625 6.976562 -2.039062 7.34375 -1.59375 C 7.71875 -1.15625 8.097656 -0.9375 8.484375 -0.9375 C 8.984375 -0.9375 9.378906 -1.15625 9.671875 -1.59375 C 9.972656 -2.039062 10.179688 -2.640625 10.296875 -3.390625 C 10.410156 -4.148438 10.445312 -5 10.40625 -5.9375 C 10.375 -6.875 10.273438 -7.84375 10.109375 -8.84375 C 9.953125 -9.84375 9.734375 -10.8125 9.453125 -11.75 C 9.171875 -12.6875 8.847656 -13.53125 8.484375 -14.28125 C 8.128906 -15.039062 7.738281 -15.640625 7.3125 -16.078125 C 6.894531 -16.523438 6.453125 -16.75 5.984375 -16.75 Z M 5.984375 -16.75 "/></g></g></g></g><g fill="#cb6ce6" fill-opacity="1"><g transform="translate(57.995659, 18.936651)"><g><path d="M 0.796875 -15.59375 C 0.796875 -16.101562 0.75 -16.519531 0.65625 -16.84375 C 0.570312 -17.164062 0.410156 -17.445312 0.171875 -17.6875 L 5.796875 -17.6875 C 6.222656 -17.6875 6.5625 -17.550781 6.8125 -17.28125 C 7.070312 -17.019531 7.300781 -16.601562 7.5 -16.03125 C 7.695312 -15.46875 7.921875 -14.734375 8.171875 -13.828125 C 8.429688 -12.921875 8.773438 -11.832031 9.203125 -10.5625 C 9.617188 -11.832031 9.953125 -12.921875 10.203125 -13.828125 C 10.460938 -14.734375 10.691406 -15.46875 10.890625 -16.03125 C 11.097656 -16.601562 11.328125 -17.019531 11.578125 -17.28125 C 11.828125 -17.550781 12.164062 -17.6875 12.59375 -17.6875 L 18.1875 -17.6875 C 17.945312 -17.445312 17.78125 -17.164062 17.6875 -16.84375 C 17.601562 -16.519531 17.5625 -16.101562 17.5625 -15.59375 L 17.5625 -2.09375 C 17.5625 -1.582031 17.601562 -1.164062 17.6875 -0.84375 C 17.78125 -0.519531 17.945312 -0.238281 18.1875 0 L 12.25 0 C 12.488281 -0.238281 12.648438 -0.519531 12.734375 -0.84375 C 12.828125 -1.164062 12.875 -1.582031 12.875 -2.09375 L 12.875 -12.375 C 12.875 -12.644531 12.859375 -12.929688 12.828125 -13.234375 C 12.796875 -13.535156 12.734375 -13.789062 12.640625 -14 C 12.554688 -14.207031 12.414062 -14.3125 12.21875 -14.3125 C 12.050781 -14.3125 11.867188 -14.113281 11.671875 -13.71875 C 11.472656 -13.332031 11.265625 -12.816406 11.046875 -12.171875 C 10.828125 -11.523438 10.609375 -10.800781 10.390625 -10 C 10.171875 -9.207031 9.960938 -8.40625 9.765625 -7.59375 C 9.585938 -6.84375 9.414062 -6.125 9.25 -5.4375 C 9.09375 -4.75 8.941406 -4.125 8.796875 -3.5625 C 8.648438 -3.007812 8.5 -2.570312 8.34375 -2.25 C 8.195312 -1.9375 8.035156 -1.78125 7.859375 -1.78125 C 7.703125 -1.78125 7.523438 -1.953125 7.328125 -2.296875 C 7.140625 -2.648438 6.941406 -3.113281 6.734375 -3.6875 C 6.523438 -4.257812 6.304688 -4.890625 6.078125 -5.578125 C 5.859375 -6.265625 5.632812 -6.953125 5.40625 -7.640625 C 5.34375 -7.847656 5.242188 -8.148438 5.109375 -8.546875 C 4.984375 -8.953125 4.832031 -9.40625 4.65625 -9.90625 C 4.488281 -10.414062 4.304688 -10.925781 4.109375 -11.4375 C 3.921875 -11.945312 3.726562 -12.421875 3.53125 -12.859375 C 3.332031 -13.296875 3.140625 -13.644531 2.953125 -13.90625 C 2.773438 -14.175781 2.613281 -14.3125 2.46875 -14.3125 C 2.28125 -14.3125 2.140625 -14.207031 2.046875 -14 C 1.953125 -13.789062 1.890625 -13.535156 1.859375 -13.234375 C 1.835938 -12.929688 1.828125 -12.644531 1.828125 -12.375 C 1.828125 -11.25 1.960938 -10.226562 2.234375 -9.3125 C 2.503906 -8.40625 2.835938 -7.582031 3.234375 -6.84375 C 3.640625 -6.113281 4.035156 -5.441406 4.421875 -4.828125 C 4.816406 -4.222656 5.148438 -3.648438 5.421875 -3.109375 C 5.703125 -2.578125 5.84375 -2.0625 5.84375 -1.5625 C 5.84375 -1.019531 5.644531 -0.625 5.25 -0.375 C 4.851562 -0.125 4.394531 0 3.875 0 L 0.171875 0 C 0.410156 -0.238281 0.570312 -0.519531 0.65625 -0.84375 C 0.75 -1.164062 0.796875 -1.582031 0.796875 -2.09375 Z M 0.796875 -15.59375 "/></g></g></g><g fill="#cb6ce6" fill-opacity="1"><g transform="translate(76.352741, 18.936651)"><g><path d="M 0.171875 0 C 0.410156 -0.238281 0.570312 -0.519531 0.65625 -0.84375 C 0.75 -1.164062 0.796875 -1.582031 0.796875 -2.09375 L 0.796875 -15.59375 C 0.796875 -16.101562 0.75 -16.519531 0.65625 -16.84375 C 0.570312 -17.164062 0.410156 -17.445312 0.171875 -17.6875 L 6.109375 -17.6875 C 5.867188 -17.445312 5.703125 -17.164062 5.609375 -16.84375 C 5.523438 -16.519531 5.484375 -16.101562 5.484375 -15.59375 L 5.484375 -2.09375 C 5.484375 -1.582031 5.523438 -1.164062 5.609375 -0.84375 C 5.703125 -0.519531 5.867188 -0.238281 6.109375 0 Z M 0.171875 0 "/></g></g></g><g fill="#cb6ce6" fill-opacity="1"><g transform="translate(82.630933, 18.936651)"><g><path d="M 0.171875 0 C 0.410156 -0.238281 0.570312 -0.519531 0.65625 -0.84375 C 0.75 -1.164062 0.796875 -1.582031 0.796875 -2.09375 L 0.796875 -15.59375 C 0.796875 -16.101562 0.75 -16.519531 0.65625 -16.84375 C 0.570312 -17.164062 0.410156 -17.445312 0.171875 -17.6875 L 5.453125 -17.6875 C 5.753906 -17.6875 6.015625 -17.628906 6.234375 -17.515625 C 6.460938 -17.398438 6.679688 -17.160156 6.890625 -16.796875 C 7.109375 -16.441406 7.347656 -15.914062 7.609375 -15.21875 C 7.878906 -14.519531 8.210938 -13.570312 8.609375 -12.375 L 10.28125 -7.421875 C 10.445312 -6.941406 10.609375 -6.460938 10.765625 -5.984375 C 10.921875 -5.503906 11.078125 -5.066406 11.234375 -4.671875 C 11.398438 -4.273438 11.5625 -3.957031 11.71875 -3.71875 C 11.882812 -3.488281 12.046875 -3.375 12.203125 -3.375 C 12.398438 -3.375 12.539062 -3.476562 12.625 -3.6875 C 12.71875 -3.894531 12.78125 -4.148438 12.8125 -4.453125 C 12.84375 -4.753906 12.859375 -5.039062 12.859375 -5.3125 C 12.859375 -6.4375 12.722656 -7.453125 12.453125 -8.359375 C 12.179688 -9.273438 11.847656 -10.097656 11.453125 -10.828125 C 11.054688 -11.566406 10.65625 -12.238281 10.25 -12.84375 C 9.851562 -13.457031 9.519531 -14.03125 9.25 -14.5625 C 8.976562 -15.101562 8.84375 -15.625 8.84375 -16.125 C 8.84375 -16.664062 9.039062 -17.0625 9.4375 -17.3125 C 9.832031 -17.5625 10.289062 -17.6875 10.8125 -17.6875 L 14.5 -17.6875 C 14.269531 -17.445312 14.109375 -17.164062 14.015625 -16.84375 C 13.929688 -16.519531 13.890625 -16.101562 13.890625 -15.59375 L 13.890625 -2.09375 C 13.890625 -1.582031 13.929688 -1.164062 14.015625 -0.84375 C 14.109375 -0.519531 14.269531 -0.238281 14.5 0 L 9.875 0 C 9.363281 0 8.925781 -0.125 8.5625 -0.375 C 8.195312 -0.632812 7.882812 -0.976562 7.625 -1.40625 C 7.375 -1.84375 7.148438 -2.335938 6.953125 -2.890625 C 6.753906 -3.441406 6.550781 -4.015625 6.34375 -4.609375 C 6.226562 -4.960938 6.082031 -5.394531 5.90625 -5.90625 C 5.726562 -6.425781 5.539062 -6.960938 5.34375 -7.515625 C 5.15625 -8.078125 4.972656 -8.597656 4.796875 -9.078125 C 4.628906 -9.566406 4.5 -9.960938 4.40625 -10.265625 C 4.238281 -10.742188 4.070312 -11.222656 3.90625 -11.703125 C 3.75 -12.179688 3.59375 -12.617188 3.4375 -13.015625 C 3.28125 -13.410156 3.117188 -13.722656 2.953125 -13.953125 C 2.796875 -14.191406 2.632812 -14.3125 2.46875 -14.3125 C 2.28125 -14.3125 2.140625 -14.207031 2.046875 -14 C 1.953125 -13.789062 1.890625 -13.535156 1.859375 -13.234375 C 1.835938 -12.929688 1.828125 -12.644531 1.828125 -12.375 C 1.828125 -11.25 1.960938 -10.226562 2.234375 -9.3125 C 2.503906 -8.40625 2.835938 -7.582031 3.234375 -6.84375 C 3.640625 -6.113281 4.035156 -5.441406 4.421875 -4.828125 C 4.816406 -4.222656 5.148438 -3.648438 5.421875 -3.109375 C 5.703125 -2.578125 5.84375 -2.0625 5.84375 -1.5625 C 5.84375 -1.019531 5.644531 -0.625 5.25 -0.375 C 4.851562 -0.125 4.394531 0 3.875 0 Z M 0.171875 0 "/></g></g></g><g clip-path="url(#87b2650aed)"><g fill="#cb6ce6" fill-opacity="1"><g transform="translate(97.309524, 18.936651)"><g><path d="M 0.4375 -8.84375 C 0.4375 -9.71875 0.519531 -10.585938 0.6875 -11.453125 C 0.851562 -12.328125 1.109375 -13.15625 1.453125 -13.9375 C 1.796875 -14.71875 2.21875 -15.40625 2.71875 -16 C 3.226562 -16.601562 3.828125 -17.078125 4.515625 -17.421875 C 5.203125 -17.773438 5.984375 -17.953125 6.859375 -17.953125 C 7.316406 -17.953125 7.753906 -17.890625 8.171875 -17.765625 C 8.597656 -17.648438 9.03125 -17.535156 9.46875 -17.421875 C 9.914062 -17.304688 10.40625 -17.25 10.9375 -17.25 C 11.34375 -17.25 11.664062 -17.304688 11.90625 -17.421875 C 12.15625 -17.535156 12.363281 -17.648438 12.53125 -17.765625 C 12.695312 -17.890625 12.867188 -17.953125 13.046875 -17.953125 C 13.285156 -17.953125 13.425781 -17.816406 13.46875 -17.546875 C 13.507812 -17.285156 13.484375 -16.957031 13.390625 -16.5625 C 13.304688 -16.164062 13.175781 -15.773438 13 -15.390625 C 12.882812 -15.117188 12.710938 -14.796875 12.484375 -14.421875 C 12.253906 -14.046875 11.972656 -13.722656 11.640625 -13.453125 C 11.316406 -13.179688 10.945312 -13.046875 10.53125 -13.046875 C 9.90625 -13.046875 9.347656 -13.117188 8.859375 -13.265625 C 8.367188 -13.410156 7.914062 -13.585938 7.5 -13.796875 C 7.09375 -14.003906 6.703125 -14.210938 6.328125 -14.421875 C 5.960938 -14.640625 5.582031 -14.816406 5.1875 -14.953125 C 4.800781 -15.097656 4.378906 -15.171875 3.921875 -15.171875 C 3.628906 -15.171875 3.390625 -15.09375 3.203125 -14.9375 C 3.015625 -14.78125 2.863281 -14.582031 2.75 -14.34375 C 2.644531 -14.101562 2.570312 -13.863281 2.53125 -13.625 C 2.488281 -13.394531 2.46875 -13.195312 2.46875 -13.03125 C 2.46875 -12.300781 2.5625 -11.519531 2.75 -10.6875 C 2.9375 -9.851562 3.203125 -9.035156 3.546875 -8.234375 C 3.898438 -7.441406 4.335938 -6.710938 4.859375 -6.046875 C 5.390625 -5.390625 6 -4.863281 6.6875 -4.46875 C 7.382812 -4.070312 8.15625 -3.875 9 -3.875 C 9.625 -3.875 10.144531 -3.984375 10.5625 -4.203125 C 10.988281 -4.429688 11.320312 -4.722656 11.5625 -5.078125 C 11.8125 -5.429688 11.988281 -5.8125 12.09375 -6.21875 C 12.195312 -6.625 12.25 -7.007812 12.25 -7.375 C 12.25 -7.894531 12.207031 -8.296875 12.125 -8.578125 C 12.050781 -8.859375 11.882812 -9 11.625 -9 C 11.46875 -9 11.316406 -8.914062 11.171875 -8.75 C 11.035156 -8.582031 10.882812 -8.378906 10.71875 -8.140625 C 10.5625 -7.910156 10.378906 -7.675781 10.171875 -7.4375 C 9.960938 -7.195312 9.703125 -6.992188 9.390625 -6.828125 C 9.078125 -6.660156 8.695312 -6.578125 8.25 -6.578125 C 7.570312 -6.578125 7.007812 -6.707031 6.5625 -6.96875 C 6.125 -7.238281 5.789062 -7.59375 5.5625 -8.03125 C 5.34375 -8.46875 5.234375 -8.953125 5.234375 -9.484375 C 5.234375 -9.753906 5.3125 -10.015625 5.46875 -10.265625 C 5.625 -10.515625 5.816406 -10.640625 6.046875 -10.640625 C 6.140625 -10.640625 6.25 -10.59375 6.375 -10.5 C 6.507812 -10.414062 6.671875 -10.328125 6.859375 -10.234375 C 7.054688 -10.140625 7.300781 -10.09375 7.59375 -10.09375 C 7.882812 -10.09375 8.148438 -10.132812 8.390625 -10.21875 C 8.628906 -10.300781 8.867188 -10.390625 9.109375 -10.484375 C 9.347656 -10.585938 9.613281 -10.679688 9.90625 -10.765625 C 10.207031 -10.847656 10.570312 -10.890625 11 -10.890625 C 11.332031 -10.890625 11.675781 -10.816406 12.03125 -10.671875 C 12.382812 -10.535156 12.679688 -10.3125 12.921875 -10 C 13.171875 -9.6875 13.296875 -9.269531 13.296875 -8.75 L 13.296875 -4.265625 C 13.148438 -3.734375 12.914062 -3.203125 12.59375 -2.671875 C 12.269531 -2.140625 11.867188 -1.648438 11.390625 -1.203125 C 10.910156 -0.753906 10.351562 -0.394531 9.71875 -0.125 C 9.082031 0.132812 8.378906 0.265625 7.609375 0.265625 C 6.617188 0.265625 5.6875 0.078125 4.8125 -0.296875 C 3.945312 -0.671875 3.1875 -1.234375 2.53125 -1.984375 C 1.882812 -2.742188 1.375 -3.695312 1 -4.84375 C 0.625 -5.988281 0.4375 -7.320312 0.4375 -8.84375 Z M 0.4375 -8.84375 "/></g></g></g></g></g></g></svg>